<svg version="1.1" viewBox="0.0 0.0 600.0 371.0" fill="none" stroke="none" strokeLinecap="square" stroke-miterlimit="10" width="600" height="371" xmlns:xlink="http://www.w3.org/1999/xlink" xmlns="http://www.w3.org/2000/svg"><path fill="#ffffff" d="M0 0L600.0 0L600.0 371.0L0 371.0L0 0Z" fill-rule="nonzero"/><path stroke="#333333" strokeWidth="1.0" strokeLinecap="butt" d="M62.5 332.5L581.5 332.5" fill-rule="nonzero"/><path stroke="#cccccc" strokeWidth="1.0" strokeLinecap="butt" d="M62.5 276.5L581.5 276.5" fill-rule="nonzero"/><path stroke="#cccccc" strokeWidth="1.0" strokeLinecap="butt" d="M62.5 220.5L581.5 220.5" fill-rule="nonzero"/><path stroke="#cccccc" strokeWidth="1.0" strokeLinecap="butt" d="M62.5 164.5L581.5 164.5" fill-rule="nonzero"/><path stroke="#cccccc" strokeWidth="1.0" strokeLinecap="butt" d="M62.5 108.5L581.5 108.5" fill-rule="nonzero"/><path stroke="#cccccc" strokeWidth="1.0" strokeLinecap="butt" d="M62.5 51.5L581.5 51.5" fill-rule="nonzero"/><clipPath id="id_0"><path d="M62.55 51.916668L581.45 51.916668L581.45 332.45L62.55 332.45L62.55 51.916668Z" clip-rule="nonzero"/></clipPath><path stroke="#46bdc6" strokeWidth="2.0" strokeLinecap="butt" clip-path="url(#id_0)" d="M62.55 321.22867L85.11087 322.9231L107.67174 322.41815L130.2326 314.73376L152.79347 312.43066L175.35435 304.7032L197.91522 293.0773L220.47609 270.7136L243.03696 302.38437L265.59784 279.05344L288.1587 268.8013L310.71957 283.94968L333.28043 269.6906L355.8413 264.6071L378.40216 242.28677L400.96304 244.99167L423.52393 241.14351L446.08478 213.47763L468.64566 208.0049L491.2065 191.20482L513.7674 168.46434L536.32825 126.48402L558.88916 114.74395L581.45 68.37257" fill-rule="nonzero"/><path stroke="#000000" strokeWidth="2.0" strokeLinecap="butt" clip-path="url(#id_0)" d="M62.55 321.22867L85.11087 320.5554L107.67174 319.8417L130.2326 319.0852L152.79347 318.28333L175.35435 317.43332L197.91522 316.53232L220.47609 315.57727L243.03696 314.5649L265.59784 313.4918L288.1587 312.3543L310.71957 311.14856L333.28043 309.87048L355.8413 308.5157L378.40216 307.07965L400.96304 305.55743L423.52393 303.94388L446.08478 302.2335L468.64566 300.4205L491.2065 298.49875L513.7674 296.46167L536.32825 294.30237L558.88916 292.01352L581.45 289.5873" fill-rule="nonzero"/><path stroke="#fbbc04" strokeWidth="2.0" strokeLinecap="butt" clip-path="url(#id_0)" d="M62.55 321.22867L85.11087 319.99432L107.67174 318.6242L130.2326 317.10336L152.79347 315.41522L175.35435 313.5414L197.91522 311.46146L220.47609 309.1527L243.03696 306.59003L265.59784 303.74542L288.1587 300.58792L310.71957 297.08307L333.28043 293.19272L355.8413 288.87442L378.40216 284.08112L400.96304 278.76053L423.52393 272.85468L446.08478 266.2992L468.64566 259.0226L491.2065 250.9456L513.7674 241.98012L536.32825 232.02843L558.88916 220.98206L581.45 208.72058" fill-rule="nonzero"/><path fill="#000000" fill-opacity="0.0" clip-path="url(#id_0)" d="M65.55 321.22867C65.55 322.88553 64.206856 324.22867 62.55 324.22867C60.893147 324.22867 59.55 322.88553 59.55 321.22867C59.55 319.5718 60.893147 318.22867 62.55 318.22867C64.206856 318.22867 65.55 319.5718 65.55 321.22867Z" fill-rule="nonzero"/><path fill="#000000" fill-opacity="0.0" clip-path="url(#id_0)" d="M88.11087 322.9231C88.11087 324.57996 86.76772 325.9231 85.11087 325.9231C83.45402 325.9231 82.11087 324.57996 82.11087 322.9231C82.11087 321.26624 83.45402 319.9231 85.11087 319.9231C86.76772 319.9231 88.11087 321.26624 88.11087 322.9231Z" fill-rule="nonzero"/><path fill="#000000" fill-opacity="0.0" clip-path="url(#id_0)" d="M110.67174 322.41815C110.67174 324.075 109.32859 325.41815 107.67174 325.41815C106.014885 325.41815 104.67174 324.075 104.67174 322.41815C104.67174 320.76132 106.014885 319.41815 107.67174 319.41815C109.32859 319.41815 110.67174 320.76132 110.67174 322.41815Z" fill-rule="nonzero"/><path fill="#000000" fill-opacity="0.0" clip-path="url(#id_0)" d="M133.2326 314.73376C133.2326 316.39062 131.88947 317.73376 130.2326 317.73376C128.57576 317.73376 127.232605 316.39062 127.232605 314.73376C127.232605 313.0769 128.57576 311.73376 130.2326 311.73376C131.88947 311.73376 133.2326 313.0769 133.2326 314.73376Z" fill-rule="nonzero"/><path fill="#000000" fill-opacity="0.0" clip-path="url(#id_0)" d="M155.79347 312.43066C155.79347 314.08752 154.45033 315.43066 152.79347 315.43066C151.13663 315.43066 149.79347 314.08752 149.79347 312.43066C149.79347 310.7738 151.13663 309.43066 152.79347 309.43066C154.45033 309.43066 155.79347 310.7738 155.79347 312.43066Z" fill-rule="nonzero"/><path fill="#000000" fill-opacity="0.0" clip-path="url(#id_0)" d="M178.35435 304.7032C178.35435 306.36005 177.0112 307.7032 175.35435 307.7032C173.6975 307.7032 172.35435 306.36005 172.35435 304.7032C172.35435 303.04636 173.6975 301.7032 175.35435 301.7032C177.0112 301.7032 178.35435 303.04636 178.35435 304.7032Z" fill-rule="nonzero"/><path fill="#000000" fill-opacity="0.0" clip-path="url(#id_0)" d="M200.91522 293.0773C200.91522 294.73413 199.57207 296.0773 197.91522 296.0773C196.25836 296.0773 194.91522 294.73413 194.91522 293.0773C194.91522 291.42044 196.25836 290.0773 197.91522 290.0773C199.57207 290.0773 200.91522 291.42044 200.91522 293.0773Z" fill-rule="nonzero"/><path fill="#000000" fill-opacity="0.0" clip-path="url(#id_0)" d="M223.47609 270.7136C223.47609 272.37045 222.13293 273.7136 220.47609 273.7136C218.81923 273.7136 217.47609 272.37045 217.47609 270.7136C217.47609 269.05673 218.81923 267.7136 220.47609 267.7136C222.13293 267.7136 223.47609 269.05673 223.47609 270.7136Z" fill-rule="nonzero"/><path fill="#000000" fill-opacity="0.0" clip-path="url(#id_0)" d="M246.03696 302.38437C246.03696 304.04123 244.69382 305.38437 243.03696 305.38437C241.3801 305.38437 240.03696 304.04123 240.03696 302.38437C240.03696 300.7275 241.3801 299.38437 243.03696 299.38437C244.69382 299.38437 246.03696 300.7275 246.03696 302.38437Z" fill-rule="nonzero"/><path fill="#000000" fill-opacity="0.0" clip-path="url(#id_0)" d="M268.59784 279.05344C268.59784 280.7103 267.25467 282.05344 265.59784 282.05344C263.94098 282.05344 262.59784 280.7103 262.59784 279.05344C262.59784 277.39658 263.94098 276.05344 265.59784 276.05344C267.25467 276.05344 268.59784 277.39658 268.59784 279.05344Z" fill-rule="nonzero"/><path fill="#000000" fill-opacity="0.0" clip-path="url(#id_0)" d="M291.1587 268.8013C291.1587 270.45816 289.81555 271.8013 288.1587 271.8013C286.50183 271.8013 285.1587 270.45816 285.1587 268.8013C285.1587 267.14444 286.50183 265.8013 288.1587 265.8013C289.81555 265.8013 291.1587 267.14444 291.1587 268.8013Z" fill-rule="nonzero"/><path fill="#000000" fill-opacity="0.0" clip-path="url(#id_0)" d="M313.71957 283.94968C313.71957 285.60654 312.37643 286.94968 310.71957 286.94968C309.0627 286.94968 307.71957 285.60654 307.71957 283.94968C307.71957 282.29285 309.0627 280.94968 310.71957 280.94968C312.37643 280.94968 313.71957 282.29285 313.71957 283.94968Z" fill-rule="nonzero"/><path fill="#000000" fill-opacity="0.0" clip-path="url(#id_0)" d="M336.28043 269.6906C336.28043 271.34744 334.9373 272.6906 333.28043 272.6906C331.62357 272.6906 330.28043 271.34744 330.28043 269.6906C330.28043 268.03375 331.62357 266.6906 333.28043 266.6906C334.9373 266.6906 336.28043 268.03375 336.28043 269.6906Z" fill-rule="nonzero"/><path fill="#000000" fill-opacity="0.0" clip-path="url(#id_0)" d="M358.8413 264.6071C358.8413 266.26395 357.49817 267.6071 355.8413 267.6071C354.18445 267.6071 352.8413 266.26395 352.8413 264.6071C352.8413 262.95023 354.18445 261.6071 355.8413 261.6071C357.49817 261.6071 358.8413 262.95023 358.8413 264.6071Z" fill-rule="nonzero"/><path fill="#000000" fill-opacity="0.0" clip-path="url(#id_0)" d="M381.40216 242.28677C381.40216 243.94362 380.05902 245.28677 378.40216 245.28677C376.74533 245.28677 375.40216 243.94362 375.40216 242.28677C375.40216 240.62991 376.74533 239.28677 378.40216 239.28677C380.05902 239.28677 381.40216 240.62991 381.40216 242.28677Z" fill-rule="nonzero"/><path fill="#000000" fill-opacity="0.0" clip-path="url(#id_0)" d="M403.96304 244.99167C403.96304 246.64853 402.6199 247.99167 400.96304 247.99167C399.30618 247.99167 397.96304 246.64853 397.96304 244.99167C397.96304 243.33481 399.30618 241.99167 400.96304 241.99167C402.6199 241.99167 403.96304 243.33481 403.96304 244.99167Z" fill-rule="nonzero"/><path fill="#000000" fill-opacity="0.0" clip-path="url(#id_0)" d="M426.52393 241.14351C426.52393 242.80035 425.18076 244.14351 423.52393 244.14351C421.86707 244.14351 420.52393 242.80035 420.52393 241.14351C420.52393 239.48665 421.86707 238.14351 423.52393 238.14351C425.18076 238.14351 426.52393 239.48665 426.52393 241.14351Z" fill-rule="nonzero"/><path fill="#000000" fill-opacity="0.0" clip-path="url(#id_0)" d="M449.08478 213.47763C449.08478 215.13449 447.74164 216.47763 446.08478 216.47763C444.42792 216.47763 443.08478 215.13449 443.08478 213.47763C443.08478 211.82079 444.42792 210.47763 446.08478 210.47763C447.74164 210.47763 449.08478 211.82079 449.08478 213.47763Z" fill-rule="nonzero"/><path fill="#000000" fill-opacity="0.0" clip-path="url(#id_0)" d="M471.64566 208.0049C471.64566 209.66176 470.30252 211.0049 468.64566 211.0049C466.9888 211.0049 465.64566 209.66176 465.64566 208.0049C465.64566 206.34805 466.9888 205.0049 468.64566 205.0049C470.30252 205.0049 471.64566 206.34805 471.64566 208.0049Z" fill-rule="nonzero"/><path fill="#000000" fill-opacity="0.0" clip-path="url(#id_0)" d="M494.2065 191.20482C494.2065 192.86166 492.86337 194.20482 491.2065 194.20482C489.54968 194.20482 488.2065 192.86166 488.2065 191.20482C488.2065 189.54796 489.54968 188.20482 491.2065 188.20482C492.86337 188.20482 494.2065 189.54796 494.2065 191.20482Z" fill-rule="nonzero"/><path fill="#000000" fill-opacity="0.0" clip-path="url(#id_0)" d="M516.7674 168.46434C516.7674 170.1212 515.42426 171.46434 513.7674 171.46434C512.11053 171.46434 510.7674 170.1212 510.7674 168.46434C510.7674 166.8075 512.11053 165.46434 513.7674 165.46434C515.42426 165.46434 516.7674 166.8075 516.7674 168.46434Z" fill-rule="nonzero"/><path fill="#000000" fill-opacity="0.0" clip-path="url(#id_0)" d="M539.32825 126.48402C539.32825 128.14087 537.9851 129.48401 536.32825 129.48401C534.6714 129.48401 533.32825 128.14087 533.32825 126.48402C533.32825 124.827156 534.6714 123.48402 536.32825 123.48402C537.9851 123.48402 539.32825 124.827156 539.32825 126.48402Z" fill-rule="nonzero"/><path fill="#000000" fill-opacity="0.0" clip-path="url(#id_0)" d="M561.88916 114.74395C561.88916 116.40081 560.54596 117.74395 558.88916 117.74395C557.2323 117.74395 555.88916 116.40081 555.88916 114.74395C555.88916 113.0871 557.2323 111.74395 558.88916 111.74395C560.54596 111.74395 561.88916 113.0871 561.88916 114.74395Z" fill-rule="nonzero"/><path fill="#000000" fill-opacity="0.0" clip-path="url(#id_0)" d="M584.45 68.37257C584.45 70.02942 583.1069 71.37257 581.45 71.37257C579.79315 71.37257 578.45 70.02942 578.45 68.37257C578.45 66.71571 579.79315 65.37257 581.45 65.37257C583.1069 65.37257 584.45 66.71571 584.45 68.37257Z" fill-rule="nonzero"/><path fill="#000000" fill-opacity="0.0" clip-path="url(#id_0)" d="M65.55 321.22867C65.55 322.88553 64.206856 324.22867 62.55 324.22867C60.893147 324.22867 59.55 322.88553 59.55 321.22867C59.55 319.5718 60.893147 318.22867 62.55 318.22867C64.206856 318.22867 65.55 319.5718 65.55 321.22867Z" fill-rule="nonzero"/><path fill="#000000" fill-opacity="0.0" clip-path="url(#id_0)" d="M88.11087 320.5554C88.11087 322.21225 86.76772 323.5554 85.11087 323.5554C83.45402 323.5554 82.11087 322.21225 82.11087 320.5554C82.11087 318.89853 83.45402 317.5554 85.11087 317.5554C86.76772 317.5554 88.11087 318.89853 88.11087 320.5554Z" fill-rule="nonzero"/><path fill="#000000" fill-opacity="0.0" clip-path="url(#id_0)" d="M110.67174 319.8417C110.67174 321.49857 109.32859 322.8417 107.67174 322.8417C106.014885 322.8417 104.67174 321.49857 104.67174 319.8417C104.67174 318.18484 106.014885 316.8417 107.67174 316.8417C109.32859 316.8417 110.67174 318.18484 110.67174 319.8417Z" fill-rule="nonzero"/><path fill="#000000" fill-opacity="0.0" clip-path="url(#id_0)" d="M133.2326 319.0852C133.2326 320.74207 131.88947 322.0852 130.2326 322.0852C128.57576 322.0852 127.232605 320.74207 127.232605 319.0852C127.232605 317.42834 128.57576 316.0852 130.2326 316.0852C131.88947 316.0852 133.2326 317.42834 133.2326 319.0852Z" fill-rule="nonzero"/><path fill="#000000" fill-opacity="0.0" clip-path="url(#id_0)" d="M155.79347 318.28333C155.79347 319.9402 154.45033 321.28333 152.79347 321.28333C151.13663 321.28333 149.79347 319.9402 149.79347 318.28333C149.79347 316.62646 151.13663 315.28333 152.79347 315.28333C154.45033 315.28333 155.79347 316.62646 155.79347 318.28333Z" fill-rule="nonzero"/><path fill="#000000" fill-opacity="0.0" clip-path="url(#id_0)" d="M178.35435 317.43332C178.35435 319.09018 177.0112 320.43332 175.35435 320.43332C173.6975 320.43332 172.35435 319.09018 172.35435 317.43332C172.35435 315.77646 173.6975 314.43332 175.35435 314.43332C177.0112 314.43332 178.35435 315.77646 178.35435 317.43332Z" fill-rule="nonzero"/><path fill="#000000" fill-opacity="0.0" clip-path="url(#id_0)" d="M200.91522 316.53232C200.91522 318.18918 199.57207 319.53232 197.91522 319.53232C196.25836 319.53232 194.91522 318.18918 194.91522 316.53232C194.91522 314.87546 196.25836 313.53232 197.91522 313.53232C199.57207 313.53232 200.91522 314.87546 200.91522 316.53232Z" fill-rule="nonzero"/><path fill="#000000" fill-opacity="0.0" clip-path="url(#id_0)" d="M223.47609 315.57727C223.47609 317.23413 222.13293 318.57727 220.47609 318.57727C218.81923 318.57727 217.47609 317.23413 217.47609 315.57727C217.47609 313.9204 218.81923 312.57727 220.47609 312.57727C222.13293 312.57727 223.47609 313.9204 223.47609 315.57727Z" fill-rule="nonzero"/><path fill="#000000" fill-opacity="0.0" clip-path="url(#id_0)" d="M246.03696 314.5649C246.03696 316.22174 244.69382 317.5649 243.03696 317.5649C241.3801 317.5649 240.03696 316.22174 240.03696 314.5649C240.03696 312.90805 241.3801 311.5649 243.03696 311.5649C244.69382 311.5649 246.03696 312.90805 246.03696 314.5649Z" fill-rule="nonzero"/><path fill="#000000" fill-opacity="0.0" clip-path="url(#id_0)" d="M268.59784 313.4918C268.59784 315.14865 267.25467 316.4918 265.59784 316.4918C263.94098 316.4918 262.59784 315.14865 262.59784 313.4918C262.59784 311.83493 263.94098 310.4918 265.59784 310.4918C267.25467 310.4918 268.59784 311.83493 268.59784 313.4918Z" fill-rule="nonzero"/><path fill="#000000" fill-opacity="0.0" clip-path="url(#id_0)" d="M291.1587 312.3543C291.1587 314.01117 289.81555 315.3543 288.1587 315.3543C286.50183 315.3543 285.1587 314.01117 285.1587 312.3543C285.1587 310.69745 286.50183 309.3543 288.1587 309.3543C289.81555 309.3543 291.1587 310.69745 291.1587 312.3543Z" fill-rule="nonzero"/><path fill="#000000" fill-opacity="0.0" clip-path="url(#id_0)" d="M313.71957 311.14856C313.71957 312.80542 312.37643 314.14856 310.71957 314.14856C309.0627 314.14856 307.71957 312.80542 307.71957 311.14856C307.71957 309.4917 309.0627 308.14856 310.71957 308.14856C312.37643 308.14856 313.71957 309.4917 313.71957 311.14856Z" fill-rule="nonzero"/><path fill="#000000" fill-opacity="0.0" clip-path="url(#id_0)" d="M336.28043 309.87048C336.28043 311.5273 334.9373 312.87048 333.28043 312.87048C331.62357 312.87048 330.28043 311.5273 330.28043 309.87048C330.28043 308.21362 331.62357 306.87048 333.28043 306.87048C334.9373 306.87048 336.28043 308.21362 336.28043 309.87048Z" fill-rule="nonzero"/><path fill="#000000" fill-opacity="0.0" clip-path="url(#id_0)" d="M358.8413 308.5157C358.8413 310.17255 357.49817 311.5157 355.8413 311.5157C354.18445 311.5157 352.8413 310.17255 352.8413 308.5157C352.8413 306.85886 354.18445 305.5157 355.8413 305.5157C357.49817 305.5157 358.8413 306.85886 358.8413 308.5157Z" fill-rule="nonzero"/><path fill="#000000" fill-opacity="0.0" clip-path="url(#id_0)" d="M381.40216 307.07965C381.40216 308.7365 380.05902 310.07965 378.40216 310.07965C376.74533 310.07965 375.40216 308.7365 375.40216 307.07965C375.40216 305.4228 376.74533 304.07965 378.40216 304.07965C380.05902 304.07965 381.40216 305.4228 381.40216 307.07965Z" fill-rule="nonzero"/><path fill="#000000" fill-opacity="0.0" clip-path="url(#id_0)" d="M403.96304 305.55743C403.96304 307.21426 402.6199 308.55743 400.96304 308.55743C399.30618 308.55743 397.96304 307.21426 397.96304 305.55743C397.96304 303.90057 399.30618 302.55743 400.96304 302.55743C402.6199 302.55743 403.96304 303.90057 403.96304 305.55743Z" fill-rule="nonzero"/><path fill="#000000" fill-opacity="0.0" clip-path="url(#id_0)" d="M426.52393 303.94388C426.52393 305.6007 425.18076 306.94388 423.52393 306.94388C421.86707 306.94388 420.52393 305.6007 420.52393 303.94388C420.52393 302.28702 421.86707 300.94388 423.52393 300.94388C425.18076 300.94388 426.52393 302.28702 426.52393 303.94388Z" fill-rule="nonzero"/><path fill="#000000" fill-opacity="0.0" clip-path="url(#id_0)" d="M449.08478 302.2335C449.08478 303.89035 447.74164 305.2335 446.08478 305.2335C444.42792 305.2335 443.08478 303.89035 443.08478 302.2335C443.08478 300.57663 444.42792 299.2335 446.08478 299.2335C447.74164 299.2335 449.08478 300.57663 449.08478 302.2335Z" fill-rule="nonzero"/><path fill="#000000" fill-opacity="0.0" clip-path="url(#id_0)" d="M471.64566 300.4205C471.64566 302.07736 470.30252 303.4205 468.64566 303.4205C466.9888 303.4205 465.64566 302.07736 465.64566 300.4205C465.64566 298.76364 466.9888 297.4205 468.64566 297.4205C470.30252 297.4205 471.64566 298.76364 471.64566 300.4205Z" fill-rule="nonzero"/><path fill="#000000" fill-opacity="0.0" clip-path="url(#id_0)" d="M494.2065 298.49875C494.2065 300.15558 492.86337 301.49875 491.2065 301.49875C489.54968 301.49875 488.2065 300.15558 488.2065 298.49875C488.2065 296.8419 489.54968 295.49875 491.2065 295.49875C492.86337 295.49875 494.2065 296.8419 494.2065 298.49875Z" fill-rule="nonzero"/><path fill="#000000" fill-opacity="0.0" clip-path="url(#id_0)" d="M516.7674 296.46167C516.7674 298.11853 515.42426 299.46167 513.7674 299.46167C512.11053 299.46167 510.7674 298.11853 510.7674 296.46167C510.7674 294.8048 512.11053 293.46167 513.7674 293.46167C515.42426 293.46167 516.7674 294.8048 516.7674 296.46167Z" fill-rule="nonzero"/><path fill="#000000" fill-opacity="0.0" clip-path="url(#id_0)" d="M539.32825 294.30237C539.32825 295.95923 537.9851 297.30237 536.32825 297.30237C534.6714 297.30237 533.32825 295.95923 533.32825 294.30237C533.32825 292.6455 534.6714 291.30237 536.32825 291.30237C537.9851 291.30237 539.32825 292.6455 539.32825 294.30237Z" fill-rule="nonzero"/><path fill="#000000" fill-opacity="0.0" clip-path="url(#id_0)" d="M561.88916 292.01352C561.88916 293.67035 560.54596 295.01352 558.88916 295.01352C557.2323 295.01352 555.88916 293.67035 555.88916 292.01352C555.88916 290.35666 557.2323 289.01352 558.88916 289.01352C560.54596 289.01352 561.88916 290.35666 561.88916 292.01352Z" fill-rule="nonzero"/><path fill="#000000" fill-opacity="0.0" clip-path="url(#id_0)" d="M584.45 289.5873C584.45 291.24417 583.1069 292.5873 581.45 292.5873C579.79315 292.5873 578.45 291.24417 578.45 289.5873C578.45 287.93045 579.79315 286.5873 581.45 286.5873C583.1069 286.5873 584.45 287.93045 584.45 289.5873Z" fill-rule="nonzero"/><path fill="#000000" fill-opacity="0.0" clip-path="url(#id_0)" d="M65.55 321.22867C65.55 322.88553 64.206856 324.22867 62.55 324.22867C60.893147 324.22867 59.55 322.88553 59.55 321.22867C59.55 319.5718 60.893147 318.22867 62.55 318.22867C64.206856 318.22867 65.55 319.5718 65.55 321.22867Z" fill-rule="nonzero"/><path fill="#000000" fill-opacity="0.0" clip-path="url(#id_0)" d="M88.11087 319.99432C88.11087 321.65118 86.76772 322.99432 85.11087 322.99432C83.45402 322.99432 82.11087 321.65118 82.11087 319.99432C82.11087 318.33746 83.45402 316.99432 85.11087 316.99432C86.76772 316.99432 88.11087 318.33746 88.11087 319.99432Z" fill-rule="nonzero"/><path fill="#000000" fill-opacity="0.0" clip-path="url(#id_0)" d="M110.67174 318.6242C110.67174 320.28104 109.32859 321.6242 107.67174 321.6242C106.014885 321.6242 104.67174 320.28104 104.67174 318.6242C104.67174 316.96735 106.014885 315.6242 107.67174 315.6242C109.32859 315.6242 110.67174 316.96735 110.67174 318.6242Z" fill-rule="nonzero"/><path fill="#000000" fill-opacity="0.0" clip-path="url(#id_0)" d="M133.2326 317.10336C133.2326 318.76022 131.88947 320.10336 130.2326 320.10336C128.57576 320.10336 127.232605 318.76022 127.232605 317.10336C127.232605 315.4465 128.57576 314.10336 130.2326 314.10336C131.88947 314.10336 133.2326 315.4465 133.2326 317.10336Z" fill-rule="nonzero"/><path fill="#000000" fill-opacity="0.0" clip-path="url(#id_0)" d="M155.79347 315.41522C155.79347 317.07208 154.45033 318.41522 152.79347 318.41522C151.13663 318.41522 149.79347 317.07208 149.79347 315.41522C149.79347 313.75836 151.13663 312.41522 152.79347 312.41522C154.45033 312.41522 155.79347 313.75836 155.79347 315.41522Z" fill-rule="nonzero"/><path fill="#000000" fill-opacity="0.0" clip-path="url(#id_0)" d="M178.35435 313.5414C178.35435 315.19824 177.0112 316.5414 175.35435 316.5414C173.6975 316.5414 172.35435 315.19824 172.35435 313.5414C172.35435 311.88455 173.6975 310.5414 175.35435 310.5414C177.0112 310.5414 178.35435 311.88455 178.35435 313.5414Z" fill-rule="nonzero"/><path fill="#000000" fill-opacity="0.0" clip-path="url(#id_0)" d="M200.91522 311.46146C200.91522 313.11832 199.57207 314.46146 197.91522 314.46146C196.25836 314.46146 194.91522 313.11832 194.91522 311.46146C194.91522 309.8046 196.25836 308.46146 197.91522 308.46146C199.57207 308.46146 200.91522 309.8046 200.91522 311.46146Z" fill-rule="nonzero"/><path fill="#000000" fill-opacity="0.0" clip-path="url(#id_0)" d="M223.47609 309.1527C223.47609 310.80957 222.13293 312.1527 220.47609 312.1527C218.81923 312.1527 217.47609 310.80957 217.47609 309.1527C217.47609 307.49585 218.81923 306.1527 220.47609 306.1527C222.13293 306.1527 223.47609 307.49585 223.47609 309.1527Z" fill-rule="nonzero"/><path fill="#000000" fill-opacity="0.0" clip-path="url(#id_0)" d="M246.03696 306.59003C246.03696 308.24686 244.69382 309.59003 243.03696 309.59003C241.3801 309.59003 240.03696 308.24686 240.03696 306.59003C240.03696 304.93317 241.3801 303.59003 243.03696 303.59003C244.69382 303.59003 246.03696 304.93317 246.03696 306.59003Z" fill-rule="nonzero"/><path fill="#000000" fill-opacity="0.0" clip-path="url(#id_0)" d="M268.59784 303.74542C268.59784 305.40228 267.25467 306.74542 265.59784 306.74542C263.94098 306.74542 262.59784 305.40228 262.59784 303.74542C262.59784 302.08856 263.94098 300.74542 265.59784 300.74542C267.25467 300.74542 268.59784 302.08856 268.59784 303.74542Z" fill-rule="nonzero"/><path fill="#000000" fill-opacity="0.0" clip-path="url(#id_0)" d="M291.1587 300.58792C291.1587 302.24475 289.81555 303.58792 288.1587 303.58792C286.50183 303.58792 285.1587 302.24475 285.1587 300.58792C285.1587 298.93106 286.50183 297.58792 288.1587 297.58792C289.81555 297.58792 291.1587 298.93106 291.1587 300.58792Z" fill-rule="nonzero"/><path fill="#000000" fill-opacity="0.0" clip-path="url(#id_0)" d="M313.71957 297.08307C313.71957 298.73993 312.37643 300.08307 310.71957 300.08307C309.0627 300.08307 307.71957 298.73993 307.71957 297.08307C307.71957 295.42624 309.0627 294.08307 310.71957 294.08307C312.37643 294.08307 313.71957 295.42624 313.71957 297.08307Z" fill-rule="nonzero"/><path fill="#000000" fill-opacity="0.0" clip-path="url(#id_0)" d="M336.28043 293.19272C336.28043 294.84958 334.9373 296.19272 333.28043 296.19272C331.62357 296.19272 330.28043 294.84958 330.28043 293.19272C330.28043 291.53586 331.62357 290.19272 333.28043 290.19272C334.9373 290.19272 336.28043 291.53586 336.28043 293.19272Z" fill-rule="nonzero"/><path fill="#000000" fill-opacity="0.0" clip-path="url(#id_0)" d="M358.8413 288.87442C358.8413 290.53128 357.49817 291.87442 355.8413 291.87442C354.18445 291.87442 352.8413 290.53128 352.8413 288.87442C352.8413 287.21756 354.18445 285.87442 355.8413 285.87442C357.49817 285.87442 358.8413 287.21756 358.8413 288.87442Z" fill-rule="nonzero"/><path fill="#000000" fill-opacity="0.0" clip-path="url(#id_0)" d="M381.40216 284.08112C381.40216 285.73795 380.05902 287.08112 378.40216 287.08112C376.74533 287.08112 375.40216 285.73795 375.40216 284.08112C375.40216 282.42426 376.74533 281.08112 378.40216 281.08112C380.05902 281.08112 381.40216 282.42426 381.40216 284.08112Z" fill-rule="nonzero"/><path fill="#000000" fill-opacity="0.0" clip-path="url(#id_0)" d="M403.96304 278.76053C403.96304 280.4174 402.6199 281.76053 400.96304 281.76053C399.30618 281.76053 397.96304 280.4174 397.96304 278.76053C397.96304 277.10367 399.30618 275.76053 400.96304 275.76053C402.6199 275.76053 403.96304 277.10367 403.96304 278.76053Z" fill-rule="nonzero"/><path fill="#000000" fill-opacity="0.0" clip-path="url(#id_0)" d="M426.52393 272.85468C426.52393 274.51154 425.18076 275.85468 423.52393 275.85468C421.86707 275.85468 420.52393 274.51154 420.52393 272.85468C420.52393 271.1978 421.86707 269.85468 423.52393 269.85468C425.18076 269.85468 426.52393 271.1978 426.52393 272.85468Z" fill-rule="nonzero"/><path fill="#000000" fill-opacity="0.0" clip-path="url(#id_0)" d="M449.08478 266.2992C449.08478 267.95605 447.74164 269.2992 446.08478 269.2992C444.42792 269.2992 443.08478 267.95605 443.08478 266.2992C443.08478 264.64233 444.42792 263.2992 446.08478 263.2992C447.74164 263.2992 449.08478 264.64233 449.08478 266.2992Z" fill-rule="nonzero"/><path fill="#000000" fill-opacity="0.0" clip-path="url(#id_0)" d="M471.64566 259.0226C471.64566 260.67947 470.30252 262.0226 468.64566 262.0226C466.9888 262.0226 465.64566 260.67947 465.64566 259.0226C465.64566 257.36575 466.9888 256.0226 468.64566 256.0226C470.30252 256.0226 471.64566 257.36575 471.64566 259.0226Z" fill-rule="nonzero"/><path fill="#000000" fill-opacity="0.0" clip-path="url(#id_0)" d="M494.2065 250.9456C494.2065 252.60245 492.86337 253.9456 491.2065 253.9456C489.54968 253.9456 488.2065 252.60245 488.2065 250.9456C488.2065 249.28874 489.54968 247.9456 491.2065 247.9456C492.86337 247.9456 494.2065 249.28874 494.2065 250.9456Z" fill-rule="nonzero"/><path fill="#000000" fill-opacity="0.0" clip-path="url(#id_0)" d="M516.7674 241.98012C516.7674 243.63696 515.42426 244.98012 513.7674 244.98012C512.11053 244.98012 510.7674 243.63696 510.7674 241.98012C510.7674 240.32326 512.11053 238.98012 513.7674 238.98012C515.42426 238.98012 516.7674 240.32326 516.7674 241.98012Z" fill-rule="nonzero"/><path fill="#000000" fill-opacity="0.0" clip-path="url(#id_0)" d="M539.32825 232.02843C539.32825 233.68529 537.9851 235.02843 536.32825 235.02843C534.6714 235.02843 533.32825 233.68529 533.32825 232.02843C533.32825 230.37157 534.6714 229.02843 536.32825 229.02843C537.9851 229.02843 539.32825 230.37157 539.32825 232.02843Z" fill-rule="nonzero"/><path fill="#000000" fill-opacity="0.0" clip-path="url(#id_0)" d="M561.88916 220.98206C561.88916 222.63892 560.54596 223.98206 558.88916 223.98206C557.2323 223.98206 555.88916 222.63892 555.88916 220.98206C555.88916 219.3252 557.2323 217.98206 558.88916 217.98206C560.54596 217.98206 561.88916 219.3252 561.88916 220.98206Z" fill-rule="nonzero"/><path fill="#000000" fill-opacity="0.0" clip-path="url(#id_0)" d="M584.45 208.72058C584.45 210.37744 583.1069 211.72058 581.45 211.72058C579.79315 211.72058 578.45 210.37744 578.45 208.72058C578.45 207.06372 579.79315 205.72058 581.45 205.72058C583.1069 205.72058 584.45 207.06372 584.45 208.72058Z" fill-rule="nonzero"/><path fill="#000000" d="M50.05 332.21564Q50.05 330.6844 50.3625 329.7625Q50.675 328.825 51.284374 328.325Q51.909374 327.825 52.846874 327.825Q53.534374 327.825 54.05 328.10626Q54.58125 328.3875 54.925 328.91876Q55.26875 329.4344 55.45625 330.1844Q55.64375 330.9344 55.64375 332.21564Q55.64375 333.73126 55.33125 334.65314Q55.034374 335.575 54.409374 336.09064Q53.8 336.59064 52.846874 336.59064Q51.6125 336.59064 50.89375 335.7Q50.05 334.6375 50.05 332.21564ZM51.128124 332.21564Q51.128124 334.325 51.628124 335.02814Q52.128124 335.73126 52.846874 335.73126Q53.58125 335.73126 54.065624 335.02814Q54.565624 334.325 54.565624 332.21564Q54.565624 330.09064 54.065624 329.40314Q53.58125 328.7 52.83125 328.7Q52.1125 328.7 51.675 329.3094Q51.128124 330.09064 51.128124 332.21564Z" fill-rule="nonzero"/><path fill="#000000" d="M26.05 278.09332L27.159374 277.99957Q27.284374 278.81207 27.721874 279.21832Q28.175 279.62457 28.815624 279.62457Q29.565624 279.62457 30.096874 279.04645Q30.628124 278.46832 30.628124 277.53082Q30.628124 276.62457 30.1125 276.10895Q29.6125 275.5777 28.784374 275.5777Q28.284374 275.5777 27.8625 275.81207Q27.45625 276.04645 27.221874 276.40582L26.2375 276.28082L27.065624 271.87457L31.346874 271.87457L31.346874 272.87457L27.909374 272.87457L27.45625 275.18707Q28.221874 274.6402 29.065624 274.6402Q30.190624 274.6402 30.95625 275.42145Q31.7375 276.2027 31.7375 277.43707Q31.7375 278.59332 31.065624 279.4527Q30.2375 280.48395 28.815624 280.48395Q27.64375 280.48395 26.89375 279.8277Q26.159374 279.17145 26.05 278.09332ZM33.6125 280.34332L33.6125 279.1402L34.815624 279.1402L34.815624 280.34332Q34.815624 280.99957 34.58125 281.40582Q34.346874 281.8277 33.846874 282.04645L33.55 281.59332Q33.878124 281.4527 34.034374 281.15582Q34.190624 280.87457 34.221874 280.34332L33.6125 280.34332ZM36.05 276.10895Q36.05 274.5777 36.3625 273.65582Q36.675 272.71832 37.284374 272.21832Q37.909374 271.71832 38.846874 271.71832Q39.534374 271.71832 40.05 271.99957Q40.58125 272.28082 40.925 272.81207Q41.26875 273.3277 41.45625 274.0777Q41.64375 274.8277 41.64375 276.10895Q41.64375 277.62457 41.33125 278.54645Q41.034374 279.46832 40.409374 279.98395Q39.8 280.48395 38.846874 280.48395Q37.6125 280.48395 36.89375 279.59332Q36.05 278.53082 36.05 276.10895ZM37.128124 276.10895Q37.128124 278.21832 37.628124 278.92145Q38.128124 279.62457 38.846874 279.62457Q39.58125 279.62457 40.065624 278.92145Q40.565624 278.21832 40.565624 276.10895Q40.565624 273.98395 40.065624 273.29645Q39.58125 272.59332 38.83125 272.59332Q38.1125 272.59332 37.675 273.2027Q37.128124 273.98395 37.128124 276.10895ZM43.05 276.10895Q43.05 274.5777 43.3625 273.65582Q43.675 272.71832 44.284374 272.21832Q44.909374 271.71832 45.846874 271.71832Q46.534374 271.71832 47.05 271.99957Q47.58125 272.28082 47.925 272.81207Q48.26875 273.3277 48.45625 274.0777Q48.64375 274.8277 48.64375 276.10895Q48.64375 277.62457 48.33125 278.54645Q48.034374 279.46832 47.409374 279.98395Q46.8 280.48395 45.846874 280.48395Q44.6125 280.48395 43.89375 279.59332Q43.05 278.53082 43.05 276.10895ZM44.128124 276.10895Q44.128124 278.21832 44.628124 278.92145Q45.128124 279.62457 45.846874 279.62457Q46.58125 279.62457 47.065624 278.92145Q47.565624 278.21832 47.565624 276.10895Q47.565624 273.98395 47.065624 273.29645Q46.58125 272.59332 45.83125 272.59332Q45.1125 272.59332 44.675 273.2027Q44.128124 273.98395 44.128124 276.10895ZM50.05 276.10895Q50.05 274.5777 50.3625 273.65582Q50.675 272.71832 51.284374 272.21832Q51.909374 271.71832 52.846874 271.71832Q53.534374 271.71832 54.05 271.99957Q54.58125 272.28082 54.925 272.81207Q55.26875 273.3277 55.45625 274.0777Q55.64375 274.8277 55.64375 276.10895Q55.64375 277.62457 55.33125 278.54645Q55.034374 279.46832 54.409374 279.98395Q53.8 280.48395 52.846874 280.48395Q51.6125 280.48395 50.89375 279.59332Q50.05 278.53082 50.05 276.10895ZM51.128124 276.10895Q51.128124 278.21832 51.628124 278.92145Q52.128124 279.62457 52.846874 279.62457Q53.58125 279.62457 54.065624 278.92145Q54.565624 278.21832 54.565624 276.10895Q54.565624 273.98395 54.065624 273.29645Q53.58125 272.59332 52.83125 272.59332Q52.1125 272.59332 51.675 273.2027Q51.128124 273.98395 51.128124 276.10895Z" fill-rule="nonzero"/><path fill="#000000" d="M23.01875 224.23666L21.971874 224.23666L21.971874 217.51791Q21.58125 217.87729 20.95625 218.25229Q20.346874 218.61166 19.8625 218.78354L19.8625 217.76791Q20.7375 217.34604 21.39375 216.76791Q22.065624 216.17416 22.346874 215.61166L23.01875 215.61166L23.01875 224.23666ZM26.05 220.00229Q26.05 218.47104 26.3625 217.54916Q26.675 216.61166 27.284374 216.11166Q27.909374 215.61166 28.846874 215.61166Q29.534374 215.61166 30.05 215.89291Q30.58125 216.17416 30.925 216.70541Q31.26875 217.22104 31.45625 217.97104Q31.64375 218.72104 31.64375 220.00229Q31.64375 221.51791 31.33125 222.43979Q31.034374 223.36166 30.409374 223.87729Q29.8 224.37729 28.846874 224.37729Q27.6125 224.37729 26.89375 223.48666Q26.05 222.42416 26.05 220.00229ZM27.128124 220.00229Q27.128124 222.11166 27.628124 222.81479Q28.128124 223.51791 28.846874 223.51791Q29.58125 223.51791 30.065624 222.81479Q30.565624 222.11166 30.565624 220.00229Q30.565624 217.87729 30.065624 217.18979Q29.58125 216.48666 28.83125 216.48666Q28.1125 216.48666 27.675 217.09604Q27.128124 217.87729 27.128124 220.00229ZM33.6125 224.23666L33.6125 223.03354L34.815624 223.03354L34.815624 224.23666Q34.815624 224.89291 34.58125 225.29916Q34.346874 225.72104 33.846874 225.93979L33.55 225.48666Q33.878124 225.34604 34.034374 225.04916Q34.190624 224.76791 34.221874 224.23666L33.6125 224.23666ZM36.05 220.00229Q36.05 218.47104 36.3625 217.54916Q36.675 216.61166 37.284374 216.11166Q37.909374 215.61166 38.846874 215.61166Q39.534374 215.61166 40.05 215.89291Q40.58125 216.17416 40.925 216.70541Q41.26875 217.22104 41.45625 217.97104Q41.64375 218.72104 41.64375 220.00229Q41.64375 221.51791 41.33125 222.43979Q41.034374 223.36166 40.409374 223.87729Q39.8 224.37729 38.846874 224.37729Q37.6125 224.37729 36.89375 223.48666Q36.05 222.42416 36.05 220.00229ZM37.128124 220.00229Q37.128124 222.11166 37.628124 222.81479Q38.128124 223.51791 38.846874 223.51791Q39.58125 223.51791 40.065624 222.81479Q40.565624 222.11166 40.565624 220.00229Q40.565624 217.87729 40.065624 217.18979Q39.58125 216.48666 38.83125 216.48666Q38.1125 216.48666 37.675 217.09604Q37.128124 217.87729 37.128124 220.00229ZM43.05 220.00229Q43.05 218.47104 43.3625 217.54916Q43.675 216.61166 44.284374 216.11166Q44.909374 215.61166 45.846874 215.61166Q46.534374 215.61166 47.05 215.89291Q47.58125 216.17416 47.925 216.70541Q48.26875 217.22104 48.45625 217.97104Q48.64375 218.72104 48.64375 220.00229Q48.64375 221.51791 48.33125 222.43979Q48.034374 223.36166 47.409374 223.87729Q46.8 224.37729 45.846874 224.37729Q44.6125 224.37729 43.89375 223.48666Q43.05 222.42416 43.05 220.00229ZM44.128124 220.00229Q44.128124 222.11166 44.628124 222.81479Q45.128124 223.51791 45.846874 223.51791Q46.58125 223.51791 47.065624 222.81479Q47.565624 222.11166 47.565624 220.00229Q47.565624 217.87729 47.065624 217.18979Q46.58125 216.48666 45.83125 216.48666Q45.1125 216.48666 44.675 217.09604Q44.128124 217.87729 44.128124 220.00229ZM50.05 220.00229Q50.05 218.47104 50.3625 217.54916Q50.675 216.61166 51.284374 216.11166Q51.909374 215.61166 52.846874 215.61166Q53.534374 215.61166 54.05 215.89291Q54.58125 216.17416 54.925 216.70541Q55.26875 217.22104 55.45625 217.97104Q55.64375 218.72104 55.64375 220.00229Q55.64375 221.51791 55.33125 222.43979Q55.034374 223.36166 54.409374 223.87729Q53.8 224.37729 52.846874 224.37729Q51.6125 224.37729 50.89375 223.48666Q50.05 222.42416 50.05 220.00229ZM51.128124 220.00229Q51.128124 222.11166 51.628124 222.81479Q52.128124 223.51791 52.846874 223.51791Q53.58125 223.51791 54.065624 222.81479Q54.565624 222.11166 54.565624 220.00229Q54.565624 217.87729 54.065624 217.18979Q53.58125 216.48666 52.83125 216.48666Q52.1125 216.48666 51.675 217.09604Q51.128124 217.87729 51.128124 220.00229Z" fill-rule="nonzero"/><path fill="#000000" d="M23.01875 168.13L21.971874 168.13L21.971874 161.41125Q21.58125 161.77063 20.95625 162.14563Q20.346874 162.505 19.8625 162.67688L19.8625 161.66125Q20.7375 161.23938 21.39375 160.66125Q22.065624 160.0675 22.346874 159.505L23.01875 159.505L23.01875 168.13ZM26.05 165.88L27.159374 165.78625Q27.284374 166.59875 27.721874 167.005Q28.175 167.41125 28.815624 167.41125Q29.565624 167.41125 30.096874 166.83313Q30.628124 166.255 30.628124 165.3175Q30.628124 164.41125 30.1125 163.89563Q29.6125 163.36438 28.784374 163.36438Q28.284374 163.36438 27.8625 163.59875Q27.45625 163.83313 27.221874 164.1925L26.2375 164.0675L27.065624 159.66125L31.346874 159.66125L31.346874 160.66125L27.909374 160.66125L27.45625 162.97375Q28.221874 162.42688 29.065624 162.42688Q30.190624 162.42688 30.95625 163.20813Q31.7375 163.98938 31.7375 165.22375Q31.7375 166.38 31.065624 167.23938Q30.2375 168.27063 28.815624 168.27063Q27.64375 168.27063 26.89375 167.61438Q26.159374 166.95813 26.05 165.88ZM33.6125 168.13L33.6125 166.92688L34.815624 166.92688L34.815624 168.13Q34.815624 168.78625 34.58125 169.1925Q34.346874 169.61438 33.846874 169.83313L33.55 169.38Q33.878124 169.23938 34.034374 168.9425Q34.190624 168.66125 34.221874 168.13L33.6125 168.13ZM36.05 163.89563Q36.05 162.36438 36.3625 161.4425Q36.675 160.505 37.284374 160.005Q37.909374 159.505 38.846874 159.505Q39.534374 159.505 40.05 159.78625Q40.58125 160.0675 40.925 160.59875Q41.26875 161.11438 41.45625 161.86438Q41.64375 162.61438 41.64375 163.89563Q41.64375 165.41125 41.33125 166.33313Q41.034374 167.255 40.409374 167.77063Q39.8 168.27063 38.846874 168.27063Q37.6125 168.27063 36.89375 167.38Q36.05 166.3175 36.05 163.89563ZM37.128124 163.89563Q37.128124 166.005 37.628124 166.70813Q38.128124 167.41125 38.846874 167.41125Q39.58125 167.41125 40.065624 166.70813Q40.565624 166.005 40.565624 163.89563Q40.565624 161.77063 40.065624 161.08313Q39.58125 160.38 38.83125 160.38Q38.1125 160.38 37.675 160.98938Q37.128124 161.77063 37.128124 163.89563ZM43.05 163.89563Q43.05 162.36438 43.3625 161.4425Q43.675 160.505 44.284374 160.005Q44.909374 159.505 45.846874 159.505Q46.534374 159.505 47.05 159.78625Q47.58125 160.0675 47.925 160.59875Q48.26875 161.11438 48.45625 161.86438Q48.64375 162.61438 48.64375 163.89563Q48.64375 165.41125 48.33125 166.33313Q48.034374 167.255 47.409374 167.77063Q46.8 168.27063 45.846874 168.27063Q44.6125 168.27063 43.89375 167.38Q43.05 166.3175 43.05 163.89563ZM44.128124 163.89563Q44.128124 166.005 44.628124 166.70813Q45.128124 167.41125 45.846874 167.41125Q46.58125 167.41125 47.065624 166.70813Q47.565624 166.005 47.565624 163.89563Q47.565624 161.77063 47.065624 161.08313Q46.58125 160.38 45.83125 160.38Q45.1125 160.38 44.675 160.98938Q44.128124 161.77063 44.128124 163.89563ZM50.05 163.89563Q50.05 162.36438 50.3625 161.4425Q50.675 160.505 51.284374 160.005Q51.909374 159.505 52.846874 159.505Q53.534374 159.505 54.05 159.78625Q54.58125 160.0675 54.925 160.59875Q55.26875 161.11438 55.45625 161.86438Q55.64375 162.61438 55.64375 163.89563Q55.64375 165.41125 55.33125 166.33313Q55.034374 167.255 54.409374 167.77063Q53.8 168.27063 52.846874 168.27063Q51.6125 168.27063 50.89375 167.38Q50.05 166.3175 50.05 163.89563ZM51.128124 163.89563Q51.128124 166.005 51.628124 166.70813Q52.128124 167.41125 52.846874 167.41125Q53.58125 167.41125 54.065624 166.70813Q54.565624 166.005 54.565624 163.89563Q54.565624 161.77063 54.065624 161.08313Q53.58125 160.38 52.83125 160.38Q52.1125 160.38 51.675 160.98938Q51.128124 161.77063 51.128124 163.89563Z" fill-rule="nonzero"/><path fill="#000000" d="M24.596874 111.007706L24.596874 112.02333L18.909374 112.02333Q18.909374 111.64833 19.034374 111.288956Q19.253124 110.71083 19.721874 110.14833Q20.20625 109.58583 21.1125 108.851456Q22.51875 107.695206 23.003124 107.02333Q23.503124 106.351456 23.503124 105.757706Q23.503124 105.132706 23.05 104.71083Q22.596874 104.27333 21.878124 104.27333Q21.1125 104.27333 20.659374 104.726456Q20.20625 105.17958 20.190624 105.99208L19.1125 105.882706Q19.221874 104.663956 19.940624 104.038956Q20.675 103.39833 21.909374 103.39833Q23.14375 103.39833 23.8625 104.08583Q24.58125 104.77333 24.58125 105.788956Q24.58125 106.30458 24.3625 106.80458Q24.159374 107.288956 23.659374 107.851456Q23.175 108.39833 22.05 109.351456Q21.096874 110.14833 20.815624 110.445206Q20.55 110.726456 20.378124 111.007706L24.596874 111.007706ZM26.05 107.788956Q26.05 106.257706 26.3625 105.33583Q26.675 104.39833 27.284374 103.89833Q27.909374 103.39833 28.846874 103.39833Q29.534374 103.39833 30.05 103.67958Q30.58125 103.96083 30.925 104.49208Q31.26875 105.007706 31.45625 105.757706Q31.64375 106.507706 31.64375 107.788956Q31.64375 109.30458 31.33125 110.226456Q31.034374 111.14833 30.409374 111.663956Q29.8 112.163956 28.846874 112.163956Q27.6125 112.163956 26.89375 111.27333Q26.05 110.21083 26.05 107.788956ZM27.128124 107.788956Q27.128124 109.89833 27.628124 110.601456Q28.128124 111.30458 28.846874 111.30458Q29.58125 111.30458 30.065624 110.601456Q30.565624 109.89833 30.565624 107.788956Q30.565624 105.663956 30.065624 104.976456Q29.58125 104.27333 28.83125 104.27333Q28.1125 104.27333 27.675 104.882706Q27.128124 105.663956 27.128124 107.788956ZM33.6125 112.02333L33.6125 110.820206L34.815624 110.820206L34.815624 112.02333Q34.815624 112.67958 34.58125 113.08583Q34.346874 113.507706 33.846874 113.726456L33.55 113.27333Q33.878124 113.132706 34.034374 112.83583Q34.190624 112.55458 34.221874 112.02333L33.6125 112.02333ZM36.05 107.788956Q36.05 106.257706 36.3625 105.33583Q36.675 104.39833 37.284374 103.89833Q37.909374 103.39833 38.846874 103.39833Q39.534374 103.39833 40.05 103.67958Q40.58125 103.96083 40.925 104.49208Q41.26875 105.007706 41.45625 105.757706Q41.64375 106.507706 41.64375 107.788956Q41.64375 109.30458 41.33125 110.226456Q41.034374 111.14833 40.409374 111.663956Q39.8 112.163956 38.846874 112.163956Q37.6125 112.163956 36.89375 111.27333Q36.05 110.21083 36.05 107.788956ZM37.128124 107.788956Q37.128124 109.89833 37.628124 110.601456Q38.128124 111.30458 38.846874 111.30458Q39.58125 111.30458 40.065624 110.601456Q40.565624 109.89833 40.565624 107.788956Q40.565624 105.663956 40.065624 104.976456Q39.58125 104.27333 38.83125 104.27333Q38.1125 104.27333 37.675 104.882706Q37.128124 105.663956 37.128124 107.788956ZM43.05 107.788956Q43.05 106.257706 43.3625 105.33583Q43.675 104.39833 44.284374 103.89833Q44.909374 103.39833 45.846874 103.39833Q46.534374 103.39833 47.05 103.67958Q47.58125 103.96083 47.925 104.49208Q48.26875 105.007706 48.45625 105.757706Q48.64375 106.507706 48.64375 107.788956Q48.64375 109.30458 48.33125 110.226456Q48.034374 111.14833 47.409374 111.663956Q46.8 112.163956 45.846874 112.163956Q44.6125 112.163956 43.89375 111.27333Q43.05 110.21083 43.05 107.788956ZM44.128124 107.788956Q44.128124 109.89833 44.628124 110.601456Q45.128124 111.30458 45.846874 111.30458Q46.58125 111.30458 47.065624 110.601456Q47.565624 109.89833 47.565624 107.788956Q47.565624 105.663956 47.065624 104.976456Q46.58125 104.27333 45.83125 104.27333Q45.1125 104.27333 44.675 104.882706Q44.128124 105.663956 44.128124 107.788956ZM50.05 107.788956Q50.05 106.257706 50.3625 105.33583Q50.675 104.39833 51.284374 103.89833Q51.909374 103.39833 52.846874 103.39833Q53.534374 103.39833 54.05 103.67958Q54.58125 103.96083 54.925 104.49208Q55.26875 105.007706 55.45625 105.757706Q55.64375 106.507706 55.64375 107.788956Q55.64375 109.30458 55.33125 110.226456Q55.034374 111.14833 54.409374 111.663956Q53.8 112.163956 52.846874 112.163956Q51.6125 112.163956 50.89375 111.27333Q50.05 110.21083 50.05 107.788956ZM51.128124 107.788956Q51.128124 109.89833 51.628124 110.601456Q52.128124 111.30458 52.846874 111.30458Q53.58125 111.30458 54.065624 110.601456Q54.565624 109.89833 54.565624 107.788956Q54.565624 105.663956 54.065624 104.976456Q53.58125 104.27333 52.83125 104.27333Q52.1125 104.27333 51.675 104.882706Q51.128124 105.663956 51.128124 107.788956Z" fill-rule="nonzero"/><path fill="#000000" d="M24.596874 54.901043L24.596874 55.916668L18.909374 55.916668Q18.909374 55.541668 19.034374 55.182293Q19.253124 54.604168 19.721874 54.041668Q20.20625 53.479168 21.1125 52.744793Q22.51875 51.588543 23.003124 50.916668Q23.503124 50.244793 23.503124 49.651043Q23.503124 49.026043 23.05 48.604168Q22.596874 48.166668 21.878124 48.166668Q21.1125 48.166668 20.659374 48.619793Q20.20625 49.072918 20.190624 49.885418L19.1125 49.776043Q19.221874 48.557293 19.940624 47.932293Q20.675 47.291668 21.909374 47.291668Q23.14375 47.291668 23.8625 47.979168Q24.58125 48.666668 24.58125 49.682293Q24.58125 50.197918 24.3625 50.697918Q24.159374 51.182293 23.659374 51.744793Q23.175 52.291668 22.05 53.244793Q21.096874 54.041668 20.815624 54.338543Q20.55 54.619793 20.378124 54.901043L24.596874 54.901043ZM26.05 53.666668L27.159374 53.572918Q27.284374 54.385418 27.721874 54.791668Q28.175 55.197918 28.815624 55.197918Q29.565624 55.197918 30.096874 54.619793Q30.628124 54.041668 30.628124 53.104168Q30.628124 52.197918 30.1125 51.682293Q29.6125 51.151043 28.784374 51.151043Q28.284374 51.151043 27.8625 51.385418Q27.45625 51.619793 27.221874 51.979168L26.2375 51.854168L27.065624 47.447918L31.346874 47.447918L31.346874 48.447918L27.909374 48.447918L27.45625 50.760418Q28.221874 50.213543 29.065624 50.213543Q30.190624 50.213543 30.95625 50.994793Q31.7375 51.776043 31.7375 53.010418Q31.7375 54.166668 31.065624 55.026043Q30.2375 56.057293 28.815624 56.057293Q27.64375 56.057293 26.89375 55.401043Q26.159374 54.744793 26.05 53.666668ZM33.6125 55.916668L33.6125 54.713543L34.815624 54.713543L34.815624 55.916668Q34.815624 56.572918 34.58125 56.979168Q34.346874 57.401043 33.846874 57.619793L33.55 57.166668Q33.878124 57.026043 34.034374 56.729168Q34.190624 56.447918 34.221874 55.916668L33.6125 55.916668ZM36.05 51.682293Q36.05 50.151043 36.3625 49.229168Q36.675 48.291668 37.284374 47.791668Q37.909374 47.291668 38.846874 47.291668Q39.534374 47.291668 40.05 47.572918Q40.58125 47.854168 40.925 48.385418Q41.26875 48.901043 41.45625 49.651043Q41.64375 50.401043 41.64375 51.682293Q41.64375 53.197918 41.33125 54.119793Q41.034374 55.041668 40.409374 55.557293Q39.8 56.057293 38.846874 56.057293Q37.6125 56.057293 36.89375 55.166668Q36.05 54.104168 36.05 51.682293ZM37.128124 51.682293Q37.128124 53.791668 37.628124 54.494793Q38.128124 55.197918 38.846874 55.197918Q39.58125 55.197918 40.065624 54.494793Q40.565624 53.791668 40.565624 51.682293Q40.565624 49.557293 40.065624 48.869793Q39.58125 48.166668 38.83125 48.166668Q38.1125 48.166668 37.675 48.776043Q37.128124 49.557293 37.128124 51.682293ZM43.05 51.682293Q43.05 50.151043 43.3625 49.229168Q43.675 48.291668 44.284374 47.791668Q44.909374 47.291668 45.846874 47.291668Q46.534374 47.291668 47.05 47.572918Q47.58125 47.854168 47.925 48.385418Q48.26875 48.901043 48.45625 49.651043Q48.64375 50.401043 48.64375 51.682293Q48.64375 53.197918 48.33125 54.119793Q48.034374 55.041668 47.409374 55.557293Q46.8 56.057293 45.846874 56.057293Q44.6125 56.057293 43.89375 55.166668Q43.05 54.104168 43.05 51.682293ZM44.128124 51.682293Q44.128124 53.791668 44.628124 54.494793Q45.128124 55.197918 45.846874 55.197918Q46.58125 55.197918 47.065624 54.494793Q47.565624 53.791668 47.565624 51.682293Q47.565624 49.557293 47.065624 48.869793Q46.58125 48.166668 45.83125 48.166668Q45.1125 48.166668 44.675 48.776043Q44.128124 49.557293 44.128124 51.682293ZM50.05 51.682293Q50.05 50.151043 50.3625 49.229168Q50.675 48.291668 51.284374 47.791668Q51.909374 47.291668 52.846874 47.291668Q53.534374 47.291668 54.05 47.572918Q54.58125 47.854168 54.925 48.385418Q55.26875 48.901043 55.45625 49.651043Q55.64375 50.401043 55.64375 51.682293Q55.64375 53.197918 55.33125 54.119793Q55.034374 55.041668 54.409374 55.557293Q53.8 56.057293 52.846874 56.057293Q51.6125 56.057293 50.89375 55.166668Q50.05 54.104168 50.05 51.682293ZM51.128124 51.682293Q51.128124 53.791668 51.628124 54.494793Q52.128124 55.197918 52.846874 55.197918Q53.58125 55.197918 54.065624 54.494793Q54.565624 53.791668 54.565624 51.682293Q54.565624 49.557293 54.065624 48.869793Q53.58125 48.166668 52.83125 48.166668Q52.1125 48.166668 51.675 48.776043Q51.128124 49.557293 51.128124 51.682293Z" fill-rule="nonzero"/><path fill="#000000" d="M54.596874 348.4344L54.596874 349.45L48.909374 349.45Q48.909374 349.075 49.034374 348.71564Q49.253124 348.1375 49.721874 347.575Q50.20625 347.0125 51.1125 346.27814Q52.51875 345.1219 53.003124 344.45Q53.503124 343.77814 53.503124 343.1844Q53.503124 342.5594 53.05 342.1375Q52.596874 341.7 51.878124 341.7Q51.1125 341.7 50.659374 342.15314Q50.20625 342.60626 50.190624 343.41876L49.1125 343.3094Q49.221874 342.09064 49.940624 341.46564Q50.675 340.825 51.909374 340.825Q53.14375 340.825 53.8625 341.5125Q54.58125 342.2 54.58125 343.21564Q54.58125 343.73126 54.3625 344.23126Q54.159374 344.71564 53.659374 345.27814Q53.175 345.825 52.05 346.77814Q51.096874 347.575 50.815624 347.8719Q50.55 348.15314 50.378124 348.4344L54.596874 348.4344ZM56.05 345.21564Q56.05 343.6844 56.3625 342.7625Q56.675 341.825 57.284374 341.325Q57.909374 340.825 58.846874 340.825Q59.534374 340.825 60.05 341.10626Q60.58125 341.3875 60.925 341.91876Q61.26875 342.4344 61.45625 343.1844Q61.64375 343.9344 61.64375 345.21564Q61.64375 346.73126 61.33125 347.65314Q61.034374 348.575 60.409374 349.09064Q59.8 349.59064 58.846874 349.59064Q57.6125 349.59064 56.89375 348.7Q56.05 347.6375 56.05 345.21564ZM57.128124 345.21564Q57.128124 347.325 57.628124 348.02814Q58.128124 348.73126 58.846874 348.73126Q59.58125 348.73126 60.065624 348.02814Q60.565624 347.325 60.565624 345.21564Q60.565624 343.09064 60.065624 342.40314Q59.58125 341.7 58.83125 341.7Q58.1125 341.7 57.675 342.3094Q57.128124 343.09064 57.128124 345.21564ZM63.05 345.21564Q63.05 343.6844 63.3625 342.7625Q63.675 341.825 64.28438 341.325Q64.90938 340.825 65.84688 340.825Q66.53438 340.825 67.05 341.10626Q67.58125 341.3875 67.925 341.91876Q68.26875 342.4344 68.45625 343.1844Q68.64375 343.9344 68.64375 345.21564Q68.64375 346.73126 68.33125 347.65314Q68.03438 348.575 67.40938 349.09064Q66.8 349.59064 65.84688 349.59064Q64.6125 349.59064 63.89375 348.7Q63.05 347.6375 63.05 345.21564ZM64.12813 345.21564Q64.12813 347.325 64.62813 348.02814Q65.12813 348.73126 65.84688 348.73126Q66.58125 348.73126 67.06563 348.02814Q67.56563 347.325 67.56563 345.21564Q67.56563 343.09064 67.06563 342.40314Q66.58125 341.7 65.83125 341.7Q65.1125 341.7 64.675 342.3094Q64.12813 343.09064 64.12813 345.21564ZM70.05 345.21564Q70.05 343.6844 70.3625 342.7625Q70.675 341.825 71.28438 341.325Q71.90938 340.825 72.84688 340.825Q73.53438 340.825 74.05 341.10626Q74.58125 341.3875 74.925 341.91876Q75.26875 342.4344 75.45625 343.1844Q75.64375 343.9344 75.64375 345.21564Q75.64375 346.73126 75.33125 347.65314Q75.03438 348.575 74.40938 349.09064Q73.8 349.59064 72.84688 349.59064Q71.6125 349.59064 70.89375 348.7Q70.05 347.6375 70.05 345.21564ZM71.12813 345.21564Q71.12813 347.325 71.62813 348.02814Q72.12813 348.73126 72.84688 348.73126Q73.58125 348.73126 74.06563 348.02814Q74.56563 347.325 74.56563 345.21564Q74.56563 343.09064 74.06563 342.40314Q73.58125 341.7 72.83125 341.7Q72.1125 341.7 71.675 342.3094Q71.12813 343.09064 71.12813 345.21564Z" fill-rule="nonzero"/><path fill="#000000" d="M167.40123 348.4344L167.40123 349.45L161.71373 349.45Q161.71373 349.075 161.83873 348.71564Q162.05748 348.1375 162.52623 347.575Q163.0106 347.0125 163.91685 346.27814Q165.3231 345.1219 165.80748 344.45Q166.30748 343.77814 166.30748 343.1844Q166.30748 342.5594 165.85435 342.1375Q165.40123 341.7 164.68248 341.7Q163.91685 341.7 163.46373 342.15314Q163.0106 342.60626 162.99498 343.41876L161.91685 343.3094Q162.02623 342.09064 162.74498 341.46564Q163.47935 340.825 164.71373 340.825Q165.9481 340.825 166.66685 341.5125Q167.3856 342.2 167.3856 343.21564Q167.3856 343.73126 167.16685 344.23126Q166.96373 344.71564 166.46373 345.27814Q165.97935 345.825 164.85435 346.77814Q163.90123 347.575 163.61998 347.8719Q163.35435 348.15314 163.18248 348.4344L167.40123 348.4344ZM168.85435 345.21564Q168.85435 343.6844 169.16685 342.7625Q169.47935 341.825 170.08873 341.325Q170.71373 340.825 171.65123 340.825Q172.33873 340.825 172.85435 341.10626Q173.3856 341.3875 173.72935 341.91876Q174.0731 342.4344 174.2606 343.1844Q174.4481 343.9344 174.4481 345.21564Q174.4481 346.73126 174.1356 347.65314Q173.83873 348.575 173.21373 349.09064Q172.60435 349.59064 171.65123 349.59064Q170.41685 349.59064 169.6981 348.7Q168.85435 347.6375 168.85435 345.21564ZM169.93248 345.21564Q169.93248 347.325 170.43248 348.02814Q170.93248 348.73126 171.65123 348.73126Q172.3856 348.73126 172.86998 348.02814Q173.36998 347.325 173.36998 345.21564Q173.36998 343.09064 172.86998 342.40314Q172.3856 341.7 171.6356 341.7Q170.91685 341.7 170.47935 342.3094Q169.93248 343.09064 169.93248 345.21564ZM175.85435 345.21564Q175.85435 343.6844 176.16685 342.7625Q176.47935 341.825 177.08873 341.325Q177.71373 340.825 178.65123 340.825Q179.33873 340.825 179.85435 341.10626Q180.3856 341.3875 180.72935 341.91876Q181.0731 342.4344 181.2606 343.1844Q181.4481 343.9344 181.4481 345.21564Q181.4481 346.73126 181.1356 347.65314Q180.83873 348.575 180.21373 349.09064Q179.60435 349.59064 178.65123 349.59064Q177.41685 349.59064 176.6981 348.7Q175.85435 347.6375 175.85435 345.21564ZM176.93248 345.21564Q176.93248 347.325 177.43248 348.02814Q177.93248 348.73126 178.65123 348.73126Q179.3856 348.73126 179.86998 348.02814Q180.36998 347.325 180.36998 345.21564Q180.36998 343.09064 179.86998 342.40314Q179.3856 341.7 178.6356 341.7Q177.91685 341.7 177.47935 342.3094Q176.93248 343.09064 176.93248 345.21564ZM182.85435 347.2L183.96373 347.10626Q184.08873 347.91876 184.52623 348.325Q184.97935 348.73126 185.61998 348.73126Q186.36998 348.73126 186.90123 348.15314Q187.43248 347.575 187.43248 346.6375Q187.43248 345.73126 186.91685 345.21564Q186.41685 344.6844 185.58873 344.6844Q185.08873 344.6844 184.66685 344.91876Q184.2606 345.15314 184.02623 345.5125L183.04185 345.3875L183.86998 340.98126L188.15123 340.98126L188.15123 341.98126L184.71373 341.98126L184.2606 344.29376Q185.02623 343.7469 185.86998 343.7469Q186.99498 343.7469 187.7606 344.52814Q188.54185 345.3094 188.54185 346.54376Q188.54185 347.7 187.86998 348.5594Q187.04185 349.59064 185.61998 349.59064Q184.4481 349.59064 183.6981 348.9344Q182.96373 348.27814 182.85435 347.2Z" fill-rule="nonzero"/><path fill="#000000" d="M280.20557 348.4344L280.20557 349.45L274.51807 349.45Q274.51807 349.075 274.64307 348.71564Q274.86182 348.1375 275.33057 347.575Q275.81494 347.0125 276.7212 346.27814Q278.12744 345.1219 278.61182 344.45Q279.11182 343.77814 279.11182 343.1844Q279.11182 342.5594 278.6587 342.1375Q278.20557 341.7 277.48682 341.7Q276.7212 341.7 276.26807 342.15314Q275.81494 342.60626 275.79932 343.41876L274.7212 343.3094Q274.83057 342.09064 275.54932 341.46564Q276.2837 340.825 277.51807 340.825Q278.75244 340.825 279.4712 341.5125Q280.18994 342.2 280.18994 343.21564Q280.18994 343.73126 279.9712 344.23126Q279.76807 344.71564 279.26807 345.27814Q278.7837 345.825 277.6587 346.77814Q276.70557 347.575 276.42432 347.8719Q276.1587 348.15314 275.98682 348.4344L280.20557 348.4344ZM281.6587 345.21564Q281.6587 343.6844 281.9712 342.7625Q282.2837 341.825 282.89307 341.325Q283.51807 340.825 284.45557 340.825Q285.14307 340.825 285.6587 341.10626Q286.18994 341.3875 286.5337 341.91876Q286.87744 342.4344 287.06494 343.1844Q287.25244 343.9344 287.25244 345.21564Q287.25244 346.73126 286.93994 347.65314Q286.64307 348.575 286.01807 349.09064Q285.4087 349.59064 284.45557 349.59064Q283.2212 349.59064 282.50244 348.7Q281.6587 347.6375 281.6587 345.21564ZM282.73682 345.21564Q282.73682 347.325 283.23682 348.02814Q283.73682 348.73126 284.45557 348.73126Q285.18994 348.73126 285.67432 348.02814Q286.17432 347.325 286.17432 345.21564Q286.17432 343.09064 285.67432 342.40314Q285.18994 341.7 284.43994 341.7Q283.7212 341.7 283.2837 342.3094Q282.73682 343.09064 282.73682 345.21564ZM292.62744 349.45L291.58057 349.45L291.58057 342.73126Q291.18994 343.09064 290.56494 343.46564Q289.95557 343.825 289.4712 343.9969L289.4712 342.98126Q290.3462 342.5594 291.00244 341.98126Q291.67432 341.3875 291.95557 340.825L292.62744 340.825L292.62744 349.45ZM295.6587 345.21564Q295.6587 343.6844 295.9712 342.7625Q296.2837 341.825 296.89307 341.325Q297.51807 340.825 298.45557 340.825Q299.14307 340.825 299.6587 341.10626Q300.18994 341.3875 300.5337 341.91876Q300.87744 342.4344 301.06494 343.1844Q301.25244 343.9344 301.25244 345.21564Q301.25244 346.73126 300.93994 347.65314Q300.64307 348.575 300.01807 349.09064Q299.4087 349.59064 298.45557 349.59064Q297.2212 349.59064 296.50244 348.7Q295.6587 347.6375 295.6587 345.21564ZM296.73682 345.21564Q296.73682 347.325 297.23682 348.02814Q297.73682 348.73126 298.45557 348.73126Q299.18994 348.73126 299.67432 348.02814Q300.17432 347.325 300.17432 345.21564Q300.17432 343.09064 299.67432 342.40314Q299.18994 341.7 298.43994 341.7Q297.7212 341.7 297.2837 342.3094Q296.73682 343.09064 296.73682 345.21564Z" fill-rule="nonzero"/><path fill="#000000" d="M393.00992 348.4344L393.00992 349.45L387.32242 349.45Q387.32242 349.075 387.44742 348.71564Q387.66617 348.1375 388.13492 347.575Q388.6193 347.0125 389.52554 346.27814Q390.9318 345.1219 391.41617 344.45Q391.91617 343.77814 391.91617 343.1844Q391.91617 342.5594 391.46304 342.1375Q391.00992 341.7 390.29117 341.7Q389.52554 341.7 389.07242 342.15314Q388.6193 342.60626 388.60367 343.41876L387.52554 343.3094Q387.63492 342.09064 388.35367 341.46564Q389.08804 340.825 390.32242 340.825Q391.5568 340.825 392.27554 341.5125Q392.9943 342.2 392.9943 343.21564Q392.9943 343.73126 392.77554 344.23126Q392.57242 344.71564 392.07242 345.27814Q391.58804 345.825 390.46304 346.77814Q389.50992 347.575 389.22867 347.8719Q388.96304 348.15314 388.79117 348.4344L393.00992 348.4344ZM394.46304 345.21564Q394.46304 343.6844 394.77554 342.7625Q395.08804 341.825 395.69742 341.325Q396.32242 340.825 397.25992 340.825Q397.94742 340.825 398.46304 341.10626Q398.9943 341.3875 399.33804 341.91876Q399.6818 342.4344 399.8693 343.1844Q400.0568 343.9344 400.0568 345.21564Q400.0568 346.73126 399.7443 347.65314Q399.44742 348.575 398.82242 349.09064Q398.21304 349.59064 397.25992 349.59064Q396.02554 349.59064 395.3068 348.7Q394.46304 347.6375 394.46304 345.21564ZM395.54117 345.21564Q395.54117 347.325 396.04117 348.02814Q396.54117 348.73126 397.25992 348.73126Q397.9943 348.73126 398.47867 348.02814Q398.97867 347.325 398.97867 345.21564Q398.97867 343.09064 398.47867 342.40314Q397.9943 341.7 397.2443 341.7Q396.52554 341.7 396.08804 342.3094Q395.54117 343.09064 395.54117 345.21564ZM405.4318 349.45L404.38492 349.45L404.38492 342.73126Q403.9943 343.09064 403.3693 343.46564Q402.75992 343.825 402.27554 343.9969L402.27554 342.98126Q403.15054 342.5594 403.8068 341.98126Q404.47867 341.3875 404.75992 340.825L405.4318 340.825L405.4318 349.45ZM408.46304 347.2L409.57242 347.10626Q409.69742 347.91876 410.13492 348.325Q410.58804 348.73126 411.22867 348.73126Q411.97867 348.73126 412.50992 348.15314Q413.04117 347.575 413.04117 346.6375Q413.04117 345.73126 412.52554 345.21564Q412.02554 344.6844 411.19742 344.6844Q410.69742 344.6844 410.27554 344.91876Q409.8693 345.15314 409.63492 345.5125L408.65054 345.3875L409.47867 340.98126L413.75992 340.98126L413.75992 341.98126L410.32242 341.98126L409.8693 344.29376Q410.63492 343.7469 411.47867 343.7469Q412.60367 343.7469 413.3693 344.52814Q414.15054 345.3094 414.15054 346.54376Q414.15054 347.7 413.47867 348.5594Q412.65054 349.59064 411.22867 349.59064Q410.0568 349.59064 409.3068 348.9344Q408.57242 348.27814 408.46304 347.2Z" fill-rule="nonzero"/><path fill="#000000" d="M505.81427 348.4344L505.81427 349.45L500.12677 349.45Q500.12677 349.075 500.25177 348.71564Q500.47052 348.1375 500.93927 347.575Q501.42365 347.0125 502.3299 346.27814Q503.73615 345.1219 504.22052 344.45Q504.72052 343.77814 504.72052 343.1844Q504.72052 342.5594 504.2674 342.1375Q503.81427 341.7 503.09552 341.7Q502.3299 341.7 501.87677 342.15314Q501.42365 342.60626 501.40802 343.41876L500.3299 343.3094Q500.43927 342.09064 501.15802 341.46564Q501.8924 340.825 503.12677 340.825Q504.36115 340.825 505.0799 341.5125Q505.79865 342.2 505.79865 343.21564Q505.79865 343.73126 505.5799 344.23126Q505.37677 344.71564 504.87677 345.27814Q504.3924 345.825 503.2674 346.77814Q502.31427 347.575 502.03302 347.8719Q501.7674 348.15314 501.59552 348.4344L505.81427 348.4344ZM507.2674 345.21564Q507.2674 343.6844 507.5799 342.7625Q507.8924 341.825 508.50177 341.325Q509.12677 340.825 510.06427 340.825Q510.75177 340.825 511.2674 341.10626Q511.79865 341.3875 512.1424 341.91876Q512.48615 342.4344 512.67365 343.1844Q512.86115 343.9344 512.86115 345.21564Q512.86115 346.73126 512.54865 347.65314Q512.2518 348.575 511.62677 349.09064Q511.0174 349.59064 510.06427 349.59064Q508.8299 349.59064 508.11115 348.7Q507.2674 347.6375 507.2674 345.21564ZM508.34552 345.21564Q508.34552 347.325 508.84552 348.02814Q509.34552 348.73126 510.06427 348.73126Q510.79865 348.73126 511.28302 348.02814Q511.78302 347.325 511.78302 345.21564Q511.78302 343.09064 511.28302 342.40314Q510.79865 341.7 510.04865 341.7Q509.3299 341.7 508.8924 342.3094Q508.34552 343.09064 508.34552 345.21564ZM519.8143 348.4344L519.8143 349.45L514.1268 349.45Q514.1268 349.075 514.2518 348.71564Q514.4705 348.1375 514.9393 347.575Q515.42365 347.0125 516.3299 346.27814Q517.73615 345.1219 518.2205 344.45Q518.7205 343.77814 518.7205 343.1844Q518.7205 342.5594 518.2674 342.1375Q517.8143 341.7 517.0955 341.7Q516.3299 341.7 515.8768 342.15314Q515.42365 342.60626 515.408 343.41876L514.3299 343.3094Q514.4393 342.09064 515.158 341.46564Q515.8924 340.825 517.1268 340.825Q518.36115 340.825 519.0799 341.5125Q519.79865 342.2 519.79865 343.21564Q519.79865 343.73126 519.5799 344.23126Q519.3768 344.71564 518.8768 345.27814Q518.3924 345.825 517.2674 346.77814Q516.3143 347.575 516.033 347.8719Q515.7674 348.15314 515.5955 348.4344L519.8143 348.4344ZM521.2674 345.21564Q521.2674 343.6844 521.5799 342.7625Q521.8924 341.825 522.5018 341.325Q523.1268 340.825 524.0643 340.825Q524.7518 340.825 525.2674 341.10626Q525.79865 341.3875 526.1424 341.91876Q526.48615 342.4344 526.67365 343.1844Q526.86115 343.9344 526.86115 345.21564Q526.86115 346.73126 526.54865 347.65314Q526.2518 348.575 525.6268 349.09064Q525.0174 349.59064 524.0643 349.59064Q522.8299 349.59064 522.11115 348.7Q521.2674 347.6375 521.2674 345.21564ZM522.3455 345.21564Q522.3455 347.325 522.8455 348.02814Q523.3455 348.73126 524.0643 348.73126Q524.79865 348.73126 525.283 348.02814Q525.783 347.325 525.783 345.21564Q525.783 343.09064 525.283 342.40314Q524.79865 341.7 524.04865 341.7Q523.3299 341.7 522.8924 342.3094Q522.3455 343.09064 522.3455 345.21564Z" fill-rule="nonzero"/><path stroke="#46bdc6" strokeWidth="4.0" strokeLinecap="butt" d="M165.5 25.55L177.5 25.55" fill-rule="nonzero"/><path fill="#1a1a1a" d="M186.39062 29.55L186.39062 20.95625L188.10938 20.95625L190.14062 27.034374Q190.42188 27.89375 190.54688 28.315624Q190.6875 27.846874 191.0 26.940624L193.0625 20.95625L194.59375 20.95625L194.59375 29.55L193.5 29.55L193.5 22.3625L191.0 29.55L189.96875 29.55L187.48438 22.2375L187.48438 29.55L186.39062 29.55ZM199.375 29.55L199.375 28.628124Q198.64062 29.690624 197.39062 29.690624Q196.84375 29.690624 196.35938 29.4875Q195.89062 29.26875 195.65625 28.95625Q195.42188 28.628124 195.32812 28.159374Q195.26562 27.8625 195.26562 27.175L195.26562 23.33125L196.32812 23.33125L196.32812 26.784374Q196.32812 27.596874 196.39062 27.89375Q196.48438 28.3 196.79688 28.55Q197.125 28.784374 197.60938 28.784374Q198.07812 28.784374 198.48438 28.55Q198.90625 28.3 199.07812 27.878124Q199.26562 27.45625 199.26562 26.659374L199.26562 23.33125L200.3125 23.33125L200.3125 29.55L199.375 29.55ZM204.59375 28.6125L204.75 29.534374Q204.29688 29.628124 203.95312 29.628124Q203.375 29.628124 203.0625 29.45625Q202.75 29.26875 202.60938 28.971874Q202.48438 28.675 202.48438 27.721874L202.48438 24.14375L201.71875 24.14375L201.71875 23.33125L202.48438 23.33125L202.48438 21.784374L203.53125 21.159374L203.53125 23.33125L204.59375 23.33125L204.59375 24.14375L203.53125 24.14375L203.53125 27.784374Q203.53125 28.2375 203.57812 28.3625Q203.64062 28.4875 203.76562 28.565624Q203.89062 28.64375 204.125 28.64375Q204.3125 28.64375 204.59375 28.6125ZM209.375 29.55L209.375 28.628124Q208.64062 29.690624 207.39062 29.690624Q206.84375 29.690624 206.35938 29.4875Q205.89062 29.26875 205.65625 28.95625Q205.42188 28.628124 205.32812 28.159374Q205.26562 27.8625 205.26562 27.175L205.26562 23.33125L206.32812 23.33125L206.32812 26.784374Q206.32812 27.596874 206.39062 27.89375Q206.48438 28.3 206.79688 28.55Q207.125 28.784374 207.60938 28.784374Q208.07812 28.784374 208.48438 28.55Q208.90625 28.3 209.07812 27.878124Q209.26562 27.45625 209.26562 26.659374L209.26562 23.33125L210.3125 23.33125L210.3125 29.55L209.375 29.55ZM216.35938 28.784374Q215.76562 29.284374 215.21875 29.4875Q214.6875 29.690624 214.0625 29.690624Q213.03125 29.690624 212.48438 29.190624Q211.9375 28.690624 211.9375 27.909374Q211.9375 27.45625 212.14062 27.08125Q212.34375 26.690624 212.6875 26.471874Q213.03125 26.2375 213.45312 26.128124Q213.75 26.034374 214.39062 25.95625Q215.65625 25.815624 216.26562 25.596874Q216.26562 25.378124 216.26562 25.33125Q216.26562 24.675 215.96875 24.409374Q215.5625 24.065624 214.76562 24.065624Q214.03125 24.065624 213.67188 24.33125Q213.3125 24.58125 213.14062 25.2375L212.10938 25.096874Q212.25 24.440624 212.57812 24.034374Q212.90625 23.628124 213.51562 23.409374Q214.125 23.190624 214.92188 23.190624Q215.71875 23.190624 216.21875 23.378124Q216.71875 23.565624 216.95312 23.846874Q217.1875 24.128124 217.28125 24.565624Q217.32812 24.83125 217.32812 25.534374L217.32812 26.940624Q217.32812 28.409374 217.39062 28.8Q217.46875 29.190624 217.67188 29.55L216.5625 29.55Q216.40625 29.221874 216.35938 28.784374ZM216.26562 26.425Q215.6875 26.659374 214.54688 26.83125Q213.89062 26.925 213.625 27.05Q213.35938 27.159374 213.20312 27.378124Q213.0625 27.596874 213.0625 27.878124Q213.0625 28.3 213.375 28.58125Q213.70312 28.8625 214.3125 28.8625Q214.92188 28.8625 215.39062 28.596874Q215.875 28.33125 216.09375 27.8625Q216.26562 27.503124 216.26562 26.815624L216.26562 26.425ZM219.26562 29.55L219.26562 20.95625L220.32812 20.95625L220.32812 29.55L219.26562 29.55ZM225.48438 29.55L225.48438 20.95625L231.28125 20.95625L231.28125 21.971874L226.625 21.971874L226.625 24.628124L230.65625 24.628124L230.65625 25.64375L226.625 25.64375L226.625 29.55L225.48438 29.55ZM236.375 29.55L236.375 28.628124Q235.64062 29.690624 234.39062 29.690624Q233.84375 29.690624 233.35938 29.4875Q232.89062 29.26875 232.65625 28.95625Q232.42188 28.628124 232.32812 28.159374Q232.26562 27.8625 232.26562 27.175L232.26562 23.33125L233.32812 23.33125L233.32812 26.784374Q233.32812 27.596874 233.39062 27.89375Q233.48438 28.3 233.79688 28.55Q234.125 28.784374 234.60938 28.784374Q235.07812 28.784374 235.48438 28.55Q235.90625 28.3 236.07812 27.878124Q236.26562 27.45625 236.26562 26.659374L236.26562 23.33125L237.3125 23.33125L237.3125 29.55L236.375 29.55ZM239.29688 29.55L239.29688 23.33125L240.23438 23.33125L240.23438 24.20625Q240.92188 23.190624 242.21875 23.190624Q242.78125 23.190624 243.25 23.39375Q243.73438 23.596874 243.96875 23.925Q244.20312 24.253124 244.29688 24.690624Q244.34375 24.9875 244.34375 25.721874L244.34375 29.55L243.29688 29.55L243.29688 25.76875Q243.29688 25.1125 243.17188 24.8Q243.04688 24.4875 242.73438 24.3Q242.42188 24.096874 242.0 24.096874Q241.32812 24.096874 240.82812 24.534374Q240.34375 24.95625 240.34375 26.14375L240.34375 29.55L239.29688 29.55ZM250.32812 29.55L250.32812 28.76875Q249.73438 29.690624 248.59375 29.690624Q247.84375 29.690624 247.21875 29.284374Q246.59375 28.8625 246.25 28.128124Q245.90625 27.39375 245.90625 26.440624Q245.90625 25.51875 246.21875 24.753124Q246.53125 23.9875 247.15625 23.596874Q247.78125 23.190624 248.54688 23.190624Q249.10938 23.190624 249.54688 23.425Q249.98438 23.659374 250.26562 24.034374L250.26562 20.95625L251.3125 20.95625L251.3125 29.55L250.32812 29.55ZM247.0 26.440624Q247.0 27.64375 247.5 28.2375Q248.0 28.815624 248.6875 28.815624Q249.375 28.815624 249.85938 28.253124Q250.34375 27.690624 250.34375 26.534374Q250.34375 25.253124 249.84375 24.659374Q249.35938 24.065624 248.64062 24.065624Q247.9375 24.065624 247.46875 24.64375Q247.0 25.20625 247.0 26.440624ZM252.875 27.690624L253.90625 27.534374Q254.0 28.159374 254.39062 28.4875Q254.79688 28.815624 255.53125 28.815624Q256.25 28.815624 256.59375 28.534374Q256.95312 28.2375 256.95312 27.83125Q256.95312 27.471874 256.64062 27.26875Q256.42188 27.128124 255.5625 26.909374Q254.40625 26.6125 253.95312 26.409374Q253.51562 26.190624 253.28125 25.815624Q253.04688 25.440624 253.04688 24.971874Q253.04688 24.565624 253.23438 24.20625Q253.42188 23.846874 253.75 23.6125Q254.0 23.440624 254.42188 23.315624Q254.84375 23.190624 255.34375 23.190624Q256.0625 23.190624 256.60938 23.409374Q257.17188 23.6125 257.4375 23.971874Q257.70312 24.33125 257.79688 24.925L256.76562 25.065624Q256.70312 24.596874 256.35938 24.33125Q256.03125 24.05 255.40625 24.05Q254.6875 24.05 254.375 24.3Q254.0625 24.534374 254.0625 24.8625Q254.0625 25.065624 254.1875 25.221874Q254.32812 25.39375 254.59375 25.503124Q254.75 25.565624 255.53125 25.76875Q256.65625 26.08125 257.09375 26.26875Q257.53125 26.45625 257.78125 26.815624Q258.03125 27.175 258.03125 27.721874Q258.03125 28.253124 257.71875 28.721874Q257.42188 29.175 256.84375 29.440624Q256.26562 29.690624 255.53125 29.690624Q254.3125 29.690624 253.67188 29.190624Q253.04688 28.675 252.875 27.690624Z" fill-rule="nonzero"/><path stroke="#000000" strokeWidth="4.0" strokeLinecap="butt" d="M275.5 25.55L287.5 25.55" fill-rule="nonzero"/><path fill="#1a1a1a" d="M296.375 29.55L296.375 20.95625L299.60938 20.95625Q300.59375 20.95625 301.1875 21.221874Q301.78125 21.4875 302.10938 22.034374Q302.45312 22.565624 302.45312 23.159374Q302.45312 23.70625 302.15625 24.190624Q301.85938 24.675 301.25 24.971874Q302.03125 25.20625 302.4375 25.76875Q302.85938 26.315624 302.85938 27.065624Q302.85938 27.659374 302.60938 28.190624Q302.35938 28.70625 301.98438 28.9875Q301.60938 29.26875 301.03125 29.409374Q300.46875 29.55 299.65625 29.55L296.375 29.55ZM297.51562 24.565624L299.375 24.565624Q300.125 24.565624 300.45312 24.471874Q300.89062 24.346874 301.10938 24.05Q301.32812 23.7375 301.32812 23.284374Q301.32812 22.8625 301.125 22.534374Q300.92188 22.20625 300.53125 22.096874Q300.15625 21.971874 299.23438 21.971874L297.51562 21.971874L297.51562 24.565624ZM297.51562 28.534374L299.65625 28.534374Q300.20312 28.534374 300.42188 28.4875Q300.82812 28.425 301.07812 28.26875Q301.34375 28.096874 301.51562 27.784374Q301.6875 27.471874 301.6875 27.065624Q301.6875 26.58125 301.4375 26.221874Q301.20312 25.8625 300.76562 25.721874Q300.32812 25.58125 299.5 25.58125L297.51562 25.58125L297.51562 28.534374ZM308.35938 28.784374Q307.76562 29.284374 307.21875 29.4875Q306.6875 29.690624 306.0625 29.690624Q305.03125 29.690624 304.48438 29.190624Q303.9375 28.690624 303.9375 27.909374Q303.9375 27.45625 304.14062 27.08125Q304.34375 26.690624 304.6875 26.471874Q305.03125 26.2375 305.45312 26.128124Q305.75 26.034374 306.39062 25.95625Q307.65625 25.815624 308.26562 25.596874Q308.26562 25.378124 308.26562 25.33125Q308.26562 24.675 307.96875 24.409374Q307.5625 24.065624 306.76562 24.065624Q306.03125 24.065624 305.67188 24.33125Q305.3125 24.58125 305.14062 25.2375L304.10938 25.096874Q304.25 24.440624 304.57812 24.034374Q304.90625 23.628124 305.51562 23.409374Q306.125 23.190624 306.92188 23.190624Q307.71875 23.190624 308.21875 23.378124Q308.71875 23.565624 308.95312 23.846874Q309.1875 24.128124 309.28125 24.565624Q309.32812 24.83125 309.32812 25.534374L309.32812 26.940624Q309.32812 28.409374 309.39062 28.8Q309.46875 29.190624 309.67188 29.55L308.5625 29.55Q308.40625 29.221874 308.35938 28.784374ZM308.26562 26.425Q307.6875 26.659374 306.54688 26.83125Q305.89062 26.925 305.625 27.05Q305.35938 27.159374 305.20312 27.378124Q305.0625 27.596874 305.0625 27.878124Q305.0625 28.3 305.375 28.58125Q305.70312 28.8625 306.3125 28.8625Q306.92188 28.8625 307.39062 28.596874Q307.875 28.33125 308.09375 27.8625Q308.26562 27.503124 308.26562 26.815624L308.26562 26.425ZM311.29688 29.55L311.29688 23.33125L312.23438 23.33125L312.23438 24.20625Q312.92188 23.190624 314.21875 23.190624Q314.78125 23.190624 315.25 23.39375Q315.73438 23.596874 315.96875 23.925Q316.20312 24.253124 316.29688 24.690624Q316.34375 24.9875 316.34375 25.721874L316.34375 29.55L315.29688 29.55L315.29688 25.76875Q315.29688 25.1125 315.17188 24.8Q315.04688 24.4875 314.73438 24.3Q314.42188 24.096874 314.0 24.096874Q313.32812 24.096874 312.82812 24.534374Q312.34375 24.95625 312.34375 26.14375L312.34375 29.55L311.29688 29.55ZM318.29688 29.55L318.29688 20.95625L319.35938 20.95625L319.35938 25.8625L321.84375 23.33125L323.21875 23.33125L320.82812 25.628124L323.45312 29.55L322.15625 29.55L320.09375 26.3625L319.35938 27.08125L319.35938 29.55L318.29688 29.55ZM326.875 27.690624L327.90625 27.534374Q328.0 28.159374 328.39062 28.4875Q328.79688 28.815624 329.53125 28.815624Q330.25 28.815624 330.59375 28.534374Q330.95312 28.2375 330.95312 27.83125Q330.95312 27.471874 330.64062 27.26875Q330.42188 27.128124 329.5625 26.909374Q328.40625 26.6125 327.95312 26.409374Q327.51562 26.190624 327.28125 25.815624Q327.04688 25.440624 327.04688 24.971874Q327.04688 24.565624 327.23438 24.20625Q327.42188 23.846874 327.75 23.6125Q328.0 23.440624 328.42188 23.315624Q328.84375 23.190624 329.34375 23.190624Q330.0625 23.190624 330.60938 23.409374Q331.17188 23.6125 331.4375 23.971874Q331.70312 24.33125 331.79688 24.925L330.76562 25.065624Q330.70312 24.596874 330.35938 24.33125Q330.03125 24.05 329.40625 24.05Q328.6875 24.05 328.375 24.3Q328.0625 24.534374 328.0625 24.8625Q328.0625 25.065624 328.1875 25.221874Q328.32812 25.39375 328.59375 25.503124Q328.75 25.565624 329.53125 25.76875Q330.65625 26.08125 331.09375 26.26875Q331.53125 26.45625 331.78125 26.815624Q332.03125 27.175 332.03125 27.721874Q332.03125 28.253124 331.71875 28.721874Q331.42188 29.175 330.84375 29.440624Q330.26562 29.690624 329.53125 29.690624Q328.3125 29.690624 327.67188 29.190624Q327.04688 28.675 326.875 27.690624ZM338.35938 28.784374Q337.76562 29.284374 337.21875 29.4875Q336.6875 29.690624 336.0625 29.690624Q335.03125 29.690624 334.48438 29.190624Q333.9375 28.690624 333.9375 27.909374Q333.9375 27.45625 334.14062 27.08125Q334.34375 26.690624 334.6875 26.471874Q335.03125 26.2375 335.45312 26.128124Q335.75 26.034374 336.39062 25.95625Q337.65625 25.815624 338.26562 25.596874Q338.26562 25.378124 338.26562 25.33125Q338.26562 24.675 337.96875 24.409374Q337.5625 24.065624 336.76562 24.065624Q336.03125 24.065624 335.67188 24.33125Q335.3125 24.58125 335.14062 25.2375L334.10938 25.096874Q334.25 24.440624 334.57812 24.034374Q334.90625 23.628124 335.51562 23.409374Q336.125 23.190624 336.92188 23.190624Q337.71875 23.190624 338.21875 23.378124Q338.71875 23.565624 338.95312 23.846874Q339.1875 24.128124 339.28125 24.565624Q339.32812 24.83125 339.32812 25.534374L339.32812 26.940624Q339.32812 28.409374 339.39062 28.8Q339.46875 29.190624 339.67188 29.55L338.5625 29.55Q338.40625 29.221874 338.35938 28.784374ZM338.26562 26.425Q337.6875 26.659374 336.54688 26.83125Q335.89062 26.925 335.625 27.05Q335.35938 27.159374 335.20312 27.378124Q335.0625 27.596874 335.0625 27.878124Q335.0625 28.3 335.375 28.58125Q335.70312 28.8625 336.3125 28.8625Q336.92188 28.8625 337.39062 28.596874Q337.875 28.33125 338.09375 27.8625Q338.26562 27.503124 338.26562 26.815624L338.26562 26.425ZM343.01562 29.55L340.65625 23.33125L341.76562 23.33125L343.10938 27.05Q343.3125 27.659374 343.5 28.3Q343.64062 27.815624 343.89062 27.128124L345.28125 23.33125L346.35938 23.33125L344.0 29.55L343.01562 29.55ZM346.29688 22.175L346.29688 20.95625L347.35938 20.95625L347.35938 22.175L346.29688 22.175ZM346.29688 29.55L346.29688 23.33125L347.35938 23.33125L347.35938 29.55L346.29688 29.55ZM349.29688 29.55L349.29688 23.33125L350.23438 23.33125L350.23438 24.20625Q350.92188 23.190624 352.21875 23.190624Q352.78125 23.190624 353.25 23.39375Q353.73438 23.596874 353.96875 23.925Q354.20312 24.253124 354.29688 24.690624Q354.34375 24.9875 354.34375 25.721874L354.34375 29.55L353.29688 29.55L353.29688 25.76875Q353.29688 25.1125 353.17188 24.8Q353.04688 24.4875 352.73438 24.3Q352.42188 24.096874 352.0 24.096874Q351.32812 24.096874 350.82812 24.534374Q350.34375 24.95625 350.34375 26.14375L350.34375 29.55L349.29688 29.55ZM356.09375 30.065624L357.125 30.221874Q357.1875 30.690624 357.48438 30.909374Q357.875 31.20625 358.54688 31.20625Q359.28125 31.20625 359.67188 30.909374Q360.07812 30.6125 360.21875 30.096874Q360.3125 29.76875 360.29688 28.7375Q359.60938 29.55 358.57812 29.55Q357.29688 29.55 356.59375 28.628124Q355.89062 27.690624 355.89062 26.409374Q355.89062 25.51875 356.20312 24.76875Q356.53125 24.003124 357.14062 23.596874Q357.75 23.190624 358.57812 23.190624Q359.6875 23.190624 360.40625 24.08125L360.40625 23.33125L361.375 23.33125L361.375 28.70625Q361.375 30.159374 361.07812 30.76875Q360.78125 31.378124 360.14062 31.721874Q359.5 32.08125 358.5625 32.08125Q357.45312 32.08125 356.76562 31.58125Q356.07812 31.08125 356.09375 30.065624ZM356.96875 26.33125Q356.96875 27.55 357.45312 28.1125Q357.9375 28.675 358.67188 28.675Q359.40625 28.675 359.89062 28.1125Q360.39062 27.55 360.39062 26.3625Q360.39062 25.221874 359.875 24.64375Q359.375 24.065624 358.65625 24.065624Q357.95312 24.065624 357.45312 24.64375Q356.96875 25.20625 356.96875 26.33125ZM362.875 27.690624L363.90625 27.534374Q364.0 28.159374 364.39062 28.4875Q364.79688 28.815624 365.53125 28.815624Q366.25 28.815624 366.59375 28.534374Q366.95312 28.2375 366.95312 27.83125Q366.95312 27.471874 366.64062 27.26875Q366.42188 27.128124 365.5625 26.909374Q364.40625 26.6125 363.95312 26.409374Q363.51562 26.190624 363.28125 25.815624Q363.04688 25.440624 363.04688 24.971874Q363.04688 24.565624 363.23438 24.20625Q363.42188 23.846874 363.75 23.6125Q364.0 23.440624 364.42188 23.315624Q364.84375 23.190624 365.34375 23.190624Q366.0625 23.190624 366.60938 23.409374Q367.17188 23.6125 367.4375 23.971874Q367.70312 24.33125 367.79688 24.925L366.76562 25.065624Q366.70312 24.596874 366.35938 24.33125Q366.03125 24.05 365.40625 24.05Q364.6875 24.05 364.375 24.3Q364.0625 24.534374 364.0625 24.8625Q364.0625 25.065624 364.1875 25.221874Q364.32812 25.39375 364.59375 25.503124Q364.75 25.565624 365.53125 25.76875Q366.65625 26.08125 367.09375 26.26875Q367.53125 26.45625 367.78125 26.815624Q368.03125 27.175 368.03125 27.721874Q368.03125 28.253124 367.71875 28.721874Q367.42188 29.175 366.84375 29.440624Q366.26562 29.690624 365.53125 29.690624Q364.3125 29.690624 363.67188 29.190624Q363.04688 28.675 362.875 27.690624Z" fill-rule="nonzero"/><path stroke="#fbbc04" strokeWidth="4.0" strokeLinecap="butt" d="M388.5 25.55L400.5 25.55" fill-rule="nonzero"/><path fill="#1a1a1a" d="M413.45312 26.175L413.45312 25.175L417.07812 25.159374L417.07812 28.346874Q416.25 29.01875 415.35938 29.3625Q414.46875 29.690624 413.53125 29.690624Q412.26562 29.690624 411.21875 29.159374Q410.1875 28.6125 409.65625 27.596874Q409.14062 26.565624 409.14062 25.3Q409.14062 24.034374 409.65625 22.95625Q410.1875 21.8625 411.17188 21.346874Q412.15625 20.815624 413.4375 20.815624Q414.375 20.815624 415.125 21.1125Q415.875 21.409374 416.29688 21.95625Q416.73438 22.4875 416.95312 23.3625L415.9375 23.64375Q415.73438 22.9875 415.4375 22.6125Q415.15625 22.2375 414.625 22.01875Q414.09375 21.784374 413.45312 21.784374Q412.67188 21.784374 412.09375 22.01875Q411.53125 22.253124 411.17188 22.64375Q410.82812 23.034374 410.64062 23.503124Q410.3125 24.3 410.3125 25.221874Q410.3125 26.378124 410.70312 27.159374Q411.10938 27.925 411.85938 28.3Q412.60938 28.675 413.46875 28.675Q414.20312 28.675 414.90625 28.39375Q415.60938 28.096874 415.96875 27.784374L415.96875 26.175L413.45312 26.175ZM417.90625 26.440624Q417.90625 24.70625 418.85938 23.878124Q419.65625 23.190624 420.8125 23.190624Q422.09375 23.190624 422.90625 24.034374Q423.73438 24.8625 423.73438 26.346874Q423.73438 27.55 423.375 28.2375Q423.01562 28.925 422.3125 29.315624Q421.625 29.690624 420.8125 29.690624Q419.51562 29.690624 418.70312 28.8625Q417.90625 28.01875 417.90625 26.440624ZM418.98438 26.440624Q418.98438 27.628124 419.5 28.221874Q420.03125 28.815624 420.8125 28.815624Q421.60938 28.815624 422.125 28.221874Q422.64062 27.628124 422.64062 26.409374Q422.64062 25.253124 422.10938 24.659374Q421.59375 24.065624 420.8125 24.065624Q420.03125 24.065624 419.5 24.659374Q418.98438 25.2375 418.98438 26.440624ZM425.26562 29.55L425.26562 20.95625L426.32812 20.95625L426.32812 29.55L425.26562 29.55ZM432.32812 29.55L432.32812 28.76875Q431.73438 29.690624 430.59375 29.690624Q429.84375 29.690624 429.21875 29.284374Q428.59375 28.8625 428.25 28.128124Q427.90625 27.39375 427.90625 26.440624Q427.90625 25.51875 428.21875 24.753124Q428.53125 23.9875 429.15625 23.596874Q429.78125 23.190624 430.54688 23.190624Q431.10938 23.190624 431.54688 23.425Q431.98438 23.659374 432.26562 24.034374L432.26562 20.95625L433.3125 20.95625L433.3125 29.55L432.32812 29.55ZM429.0 26.440624Q429.0 27.64375 429.5 28.2375Q430.0 28.815624 430.6875 28.815624Q431.375 28.815624 431.85938 28.253124Q432.34375 27.690624 432.34375 26.534374Q432.34375 25.253124 431.84375 24.659374Q431.35938 24.065624 430.64062 24.065624Q429.9375 24.065624 429.46875 24.64375Q429.0 25.20625 429.0 26.440624Z" fill-rule="nonzero"/></svg>